<?xml version="1.0" encoding="UTF-8" standalone="no"?>
<!-- Created with Inkscape (http://www.inkscape.org/) -->

<svg
   xmlns:dc="http://purl.org/dc/elements/1.1/"
   xmlns:cc="http://creativecommons.org/ns#"
   xmlns:rdf="http://www.w3.org/1999/02/22-rdf-syntax-ns#"
   xmlns:svg="http://www.w3.org/2000/svg"
   xmlns="http://www.w3.org/2000/svg"
   xmlns:sodipodi="http://sodipodi.sourceforge.net/DTD/sodipodi-0.dtd"
   xmlns:inkscape="http://www.inkscape.org/namespaces/inkscape"
   width="2667"
   height="665"
   id="svg2"
   version="1.1"
   inkscape:version="0.48.4 r"
   sodipodi:docname="新規ドキュメント 1">
  <defs
     id="defs4" />
  <sodipodi:namedview
     id="base"
     pagecolor="#ffffff"
     bordercolor="#666666"
     borderopacity="1.0"
     inkscape:pageopacity="0.0"
     inkscape:pageshadow="2"
     inkscape:zoom="0.35"
     inkscape:cx="1429.6402"
     inkscape:cy="601.07144"
     inkscape:document-units="px"
     inkscape:current-layer="layer1"
     showgrid="false"
     fit-margin-top="0"
     fit-margin-left="0"
     fit-margin-right="0"
     fit-margin-bottom="0"
     inkscape:window-width="1920"
     inkscape:window-height="1018"
     inkscape:window-x="-8"
     inkscape:window-y="-8"
     inkscape:window-maximized="1" />
  <metadata
     id="metadata7">
    <rdf:RDF>
      <cc:Work
         rdf:about="">
        <dc:format>image/svg+xml</dc:format>
        <dc:type
           rdf:resource="http://purl.org/dc/dcmitype/StillImage" />
        <dc:title></dc:title>
      </cc:Work>
    </rdf:RDF>
  </metadata>
  <g
     inkscape:label="レイヤー 1"
     inkscape:groupmode="layer"
     id="layer1"
     transform="translate(464.92856,-448.43362)">
    <path
       style="fill:#000000"
       d="m -125.42856,1101.8236 c -4.90158,-2.2694 -8.8875,-6.3919 -10.94695,-11.3221 -2.59081,-6.2022 -2.25494,-6.7821 3.9279,-6.7821 4.95473,0 5.5389,0.2309 6.08461,2.4052 1.0789,4.2987 4.90336,6.8862 10.9148,7.3848 9.25291,0.7673 13.51964,-4.0312 13.51964,-15.2044 l 0,-5.4787 -5.60155,2.9465 c -12.48913,6.5697 -25.67387,1.2662 -30.90505,-12.4315 -2.73623,-7.1647 -1.74241,-19.0672 2.11267,-25.3027 4.21409,-6.8161 9.69493,-10.3612 16.98934,-10.9889 5.13531,-0.442 6.65373,-0.1259 11.65459,2.4261 l 5.75,2.9343 0,-2.3453 c 0,-2.1762 0.39672,-2.3454 5.5,-2.3454 l 5.5,0 -0.022,29.75 c -0.0198,26.8222 -0.20422,30.1437 -1.8739,33.75 -2.26936,4.9016 -6.39185,8.8875 -11.32202,10.947 -5.20228,2.1731 -16.2317,1.9954 -21.28212,-0.3428 z m 17.96476,-35.4891 c 6.06205,-3.972 7.98334,-15.9179 3.68,-22.8808 -4.03025,-6.5211 -12.43796,-8.3931 -18.84407,-4.1956 -3.91295,2.5638 -6.65514,9.8207 -5.95258,15.7528 0.69353,5.8557 2.58352,9.0648 6.95622,11.8111 3.7351,2.3458 10.17452,2.1241 14.16043,-0.4875 z m 419.53524,35.0811 c -5.26916,-2.749 -9.79934,-8.6848 -10.65571,-13.962 l -0.60597,-3.7342 5.63084,0 c 4.49494,0 5.63084,0.3228 5.63084,1.6 0,0.88 1.53,3.13 3.4,5 2.87097,2.871 4.10842,3.4 7.95295,3.4 5.91548,0 9.42439,-1.6687 11.35364,-5.3995 1.91524,-3.7036 3.051,-15.6005 1.48934,-15.6005 -0.59284,0 -1.38497,0.4969 -1.76028,1.1042 -0.37532,0.6072 -2.53937,1.9473 -4.80902,2.978 -11.44193,5.1958 -24.66448,-0.8507 -29.70184,-13.5822 -2.08617,-5.2726 -1.54646,-17.3531 1.01507,-22.7207 5.54317,-11.6154 17.94039,-16.7414 28.68677,-11.8614 2.26965,1.0306 4.4337,2.3707 4.80902,2.978 1.19552,1.9344 2.56435,1.1893 2.56435,-1.3959 0,-2.3666 0.2964,-2.5 5.55406,-2.5 l 5.55406,0 -0.30406,30.25 c -0.30304,30.1483 -0.31246,30.265 -2.80406,34.7056 -1.375,2.4506 -4.45042,5.8256 -6.83426,7.5 -3.90838,2.7453 -5.18573,3.0711 -13,3.3164 -7.47181,0.2344 -9.28573,-0.052 -13.16574,-2.0758 z m 19.65728,-35.8304 c 3.8712,-3.616 5.34272,-7.2429 5.34272,-13.1682 0,-16.1606 -19.4589,-21.46 -25.62888,-6.9797 -1.77235,4.1595 -1.75554,11.6426 0.0339,15.0818 1.52607,2.933 5.20574,6.5894 7.59501,7.5469 3.14843,1.2617 10.11188,-0.1031 12.65728,-2.4808 z m 602.83412,36.2692 c -5.0415,-2.2903 -10.0662,-7.9419 -11.4313,-12.8576 -1.4972,-5.3915 -1.5929,-5.2774 4.4265,-5.2774 5.3049,0 5.5341,0.1137 6.9212,3.4336 2.8625,6.8508 13.8595,8.9892 19.6266,3.8164 2.5928,-2.3257 3.232,-3.8748 4.1425,-10.0399 0.5921,-4.0095 0.8371,-7.5295 0.5443,-7.8222 -0.2927,-0.2927 -2.4873,0.7301 -4.8767,2.2729 -3.7197,2.4018 -5.3748,2.8077 -11.5084,2.8222 -6.3753,0.015 -7.6385,-0.3166 -11.4763,-3.0139 -9.5919,-6.7414 -13.2589,-19.4334 -9.2747,-32.1002 4.5394,-14.4319 20.6394,-20.7802 32.6103,-12.8583 4.6465,3.0749 4.8046,3.0746 4.8046,-0.011 0,-2.369 0.2934,-2.5 5.5989,-2.5 l 5.5989,0 -0.3551,29.75 -0.3551,29.75 -2.9584,5.3524 c -4.3231,7.8213 -10.4395,11.1332 -20.5292,11.1163 -5.0975,-0.01 -8.7841,-0.596 -11.5086,-1.8337 z m 18.1305,-35.6229 c 3.1541,-2.0666 6.3342,-8.8505 6.3342,-13.5121 0,-4.6616 -3.1801,-11.4454 -6.3342,-13.5121 -3.8956,-2.5525 -9.565,-2.8822 -13.5879,-0.7902 -4.8801,2.5377 -7.5007,7.5346 -7.5007,14.3023 0,6.7678 2.6206,11.7646 7.5007,14.3024 4.0229,2.0919 9.6923,1.7622 13.5879,-0.7903 z m -915.21213,30.1927 -4.09022,-2.2048 21.98636,-51 c 12.09249,-28.05 22.13556,-51.17754 22.31793,-51.39444 0.18236,-0.2169 2.39614,0.3941 4.9195,1.3578 3.51012,1.3405 4.44094,2.138 3.96227,3.3944 -2.81306,7.38374 -44.11066,102.13194 -44.5007,102.09704 -0.2777,-0.025 -2.34551,-1.0373 -4.59514,-2.25 z m 973.84019,0.2004 c -2.3375,-1.0027 -4.25,-2.1441 -4.25,-2.5363 0,-1.2114 43.0978,-100.81174 44.0435,-101.78584 1.411,-1.4532 9.1863,2.4557 8.6522,4.3498 -0.5058,1.7942 -42.5334,98.98584 -43.5365,100.68134 -0.4631,0.7828 -1.9236,0.5718 -4.9092,-0.709 z m -1351.50199,-19.2707 c -8.83542,-3.2972 -14.39691,-10.8329 -15.43776,-20.9178 -1.20569,-11.682 3.59216,-22.5102 11.92639,-26.9163 6.20354,-3.2797 17.6255,-3.2388 23.42457,0.084 7.16,4.1024 11.33883,11.9308 11.33883,21.2415 l 0,4.8742 -17.60841,0 -17.60841,0 0.67613,2.75 c 1.09128,4.4385 3.44752,7.3132 7.32089,8.9316 5.5277,2.3096 10.00569,1.1478 14.64889,-3.8007 l 3.9291,-4.1874 4.3209,2.2922 c 2.3765,1.2608 4.32091,2.7098 4.32091,3.22 0,2.0444 -5.56909,8.0435 -9.73131,10.4828 -5.41668,3.1744 -15.73012,4.107 -21.52072,1.946 z m 19.25203,-32.9474 c 0,-1.9529 -5.10976,-6.448 -8.19689,-7.2108 -3.67641,-0.9085 -9.34538,1.1264 -11.78747,4.231 -1.1086,1.4093 -2.01564,2.9518 -2.01564,3.4276 0,0.4758 4.95,0.8651 11,0.8651 8.41444,0 11,-0.3086 11,-1.3129 z m 61.48141,32.9194 c -3.06599,-1.336 -9.48141,-7.8683 -9.48141,-9.6543 0,-0.538 1.94135,-1.9214 4.31412,-3.0741 l 4.31412,-2.096 3.10896,3.109 c 3.42757,3.4275 7.20245,4.0264 9.69137,1.5375 3.80787,-3.8079 1.5072,-7.1573 -8.42857,-12.2708 -5.59642,-2.8803 -7.94377,-4.7226 -9.24845,-7.2589 -6.21715,-12.0859 6.69373,-24.9179 19.63191,-19.512 3.4117,1.4255 8.14552,6.9482 7.22809,8.4326 -0.28321,0.4583 -2.28957,1.6335 -4.45857,2.6115 -3.87994,1.7497 -3.97862,1.7434 -6.10979,-0.3878 -2.40567,-2.4057 -4.80261,-2.3789 -6.34515,0.071 -1.76733,2.8068 -0.009,4.7074 8.15222,8.8106 9.84071,4.9479 12.14974,7.6579 12.14974,14.2599 0,5.4076 -1.57434,9.2029 -5.15499,12.4269 -4.68661,4.2199 -13.44385,5.5744 -19.3636,2.995 z m 808.14339,-0.014 c -9.4698,-3.5251 -14.96167,-12.6135 -14.981,-24.7915 -0.0104,-6.5696 0.42059,-8.5456 2.9373,-13.4667 3.6637,-7.1638 9.5335,-11.1826 17.5298,-12.002 14.8542,-1.522 25.8891,8.2163 25.8891,22.8474 l 0,5.8206 -17.5674,0 -17.5674,0 0.6941,2.25 c 1.503,4.8723 3.5002,7.5504 6.7978,9.1152 6.4477,3.0597 10.9808,1.9112 16.1868,-4.1009 l 3.0439,-3.5152 4.2061,2.1458 c 2.3134,1.1802 4.2061,2.7091 4.2061,3.3976 0,2.2834 -6.1302,8.7333 -10.3467,10.8864 -5.3017,2.7073 -15.6789,3.4047 -21.0285,1.4132 z m 18.6764,-34.8161 c -1.1508,-1.9705 -3.3698,-3.79 -5.7072,-4.6795 -5.2355,-1.9927 -11.1837,3e-4 -13.8888,4.6534 l -1.8893,3.25 11.6841,0 11.6841,0 z m 69.2566,34.7318 c -11.0714,-3.944 -16.2304,-13.035 -15.3267,-27.0079 0.5356,-8.2809 3.1384,-14.0104 8.2961,-18.2618 11.2104,-9.2406 29.0786,-5.7718 35.5433,6.9001 1.1069,2.1696 2.2839,6.8511 2.6156,10.4033 l 0.6031,6.4584 -17.7696,0 -17.7696,0 0.648,3.25 c 0.3564,1.7875 1.9963,4.6 3.6443,6.25 2.6155,2.6189 3.707,3 8.5913,3 5.3513,0 5.7646,-0.191 9.487,-4.3856 l 3.8919,-4.3857 4.4937,2.384 c 2.4716,1.3111 4.4938,2.7907 4.4938,3.2878 0,2.2192 -10.7063,11.4371 -14.5,12.4843 -5.3719,1.4828 -12.1448,1.3321 -16.9422,-0.3769 z m 19.4422,-32.4921 c 0,-0.5413 -1.3131,-2.4538 -2.918,-4.25 -2.5606,-2.8659 -3.5322,-3.2658 -7.9343,-3.2658 -4.1874,0 -5.523,0.4854 -8.082,2.9371 -5.2038,4.9856 -4.3804,5.5629 7.9343,5.5629 6.5491,0 11,-0.3982 11,-0.9842 z m 469.92926,32.6812 c -10.5083,-2.9813 -20.7902,-11.6425 -25.7079,-21.6557 -2.4829,-5.0556 -2.7214,-6.5492 -2.7214,-17.0413 0,-10.4866 0.2394,-11.9873 2.7161,-17.0304 9.8253,-20.0057 31.5955,-28.79834 52.0339,-21.0155 l 5.75,2.1896 0,6.9092 0,6.9093 -6.4563,-3.5488 c -15.6581,-8.6069 -32.4958,-3.4304 -40.2244,12.3664 -2.3279,4.758 -2.7839,6.9587 -2.7383,13.2145 0.066,8.9874 1.6793,13.1631 7.5478,19.5296 5.4096,5.8688 10.661,8.556 18.0247,9.2238 7.0757,0.6416 13.5699,-1.0403 18.8857,-4.891 2.1689,-1.5712 4.1724,-2.8567 4.4521,-2.8567 0.2798,0 0.5087,3.1177 0.5087,6.9282 l 0,6.9281 -5.75,2.1762 c -7.0994,2.687 -19.8703,3.4946 -26.3207,1.6645 z m 93.0642,0.4286 c -14.0231,-4.6007 -21.6433,-18.5549 -17.6269,-32.2789 5.335,-18.2298 27.8523,-24.7667 42.4048,-12.3104 13.7215,11.7452 10.9559,34.4344 -5.2032,42.686 -4.4138,2.2539 -15.2843,3.3108 -19.5747,1.9033 z m 15.8707,-11.8367 c 8.1849,-5.9965 8.0821,-20.6515 -0.1875,-26.7178 -2.0248,-1.4853 -4.3376,-2.0711 -8.1767,-2.0711 -9.5213,0 -14.9085,6.3418 -14.2401,16.7635 0.4254,6.632 2.6314,10.3151 7.8112,13.0411 4.2225,2.2222 11.0097,1.7562 14.7931,-1.0157 z m 302.4024,11.5966 c -4.6662,-1.348 -10.8397,-7.641 -12.1504,-12.3855 -0.6078,-2.2 -1.1076,-11.5375 -1.1106,-20.75 l -0.01,-16.75 5.4157,0 5.4157,0 0.3343,16.7974 c 0.2812,14.128 0.6208,17.2342 2.1372,19.5456 2.5491,3.8855 5.9253,5.2005 10.4697,4.0779 6.227,-1.5384 7.224,-4.8735 7.2258,-24.1709 l 0,-16.25 5.5,0 5.5,0 0,17.134 c 0,10.1841 -0.4743,18.7169 -1.1692,21.0365 -2.8977,9.6715 -15.7419,15.1304 -27.5642,11.715 z m 237.7269,0.2401 c -7.0855,-2.3246 -13.0863,-7.4273 -16.6117,-14.1256 -2.738,-5.2023 -2.5497,-17.1503 0.3569,-22.6425 6.2522,-11.8141 23.2998,-17.7501 34.9643,-12.1748 2.6418,1.2628 2.8135,1.7467 3.0937,8.7217 l 0.2968,7.3849 -3.6579,-3.2116 c -4.7737,-4.1915 -8.0592,-5.3751 -12.8303,-4.6223 -7.8447,1.2378 -12.6053,7.2787 -12.6053,15.9954 0,14.0823 14.5305,20.3888 25.0597,10.8764 l 3.9403,-3.5599 0,7.0907 c 0,6.9847 -0.048,7.1157 -3.242,8.7672 -3.6125,1.868 -14.8941,2.7701 -18.7645,1.5004 z m 77.622,-0.5979 c -5.2175,-1.8596 -11.2067,-7.9009 -13.3564,-13.4725 -2.3087,-5.9842 -2.2884,-16.1785 0.044,-22.2263 5.1352,-13.3133 21.2303,-18.7718 32.3142,-10.9591 l 4.3824,3.089 0,-2.9794 c 0,-2.9447 0.064,-2.9794 5.5,-2.9794 l 5.5,0 0,25 0,25 -5.5,0 c -5.168,0 -5.5,-0.1477 -5.5,-2.4466 l 0,-2.4465 -5.6015,2.9465 c -6.2438,3.2844 -11.4852,3.719 -17.783,1.4743 z m 15.9248,-10.1138 c 3.9915,-1.8941 6.1016,-4.865 7.326,-10.3145 2.8585,-12.722 -8.085,-23.6325 -18.5083,-18.4525 -5.0707,2.5199 -7.5451,6.2452 -8.1197,12.2244 -0.6155,6.4066 0.115,9.2067 3.4298,13.1462 4.3318,5.148 9.7415,6.3056 15.8722,3.3964 z m 197.2132,10.0692 c -5.5412,-2.0351 -10.5071,-6.2083 -13.5531,-11.3896 -2.3646,-4.0223 -2.6993,-5.6504 -2.6918,-13.0935 0.01,-9.3768 1.1609,-12.5157 6.5778,-17.9325 5.549,-5.5491 10.5082,-7.5211 18.9136,-7.5211 8.4054,0 13.3646,1.972 18.9136,7.5211 4.7268,4.7268 6.3603,8.6829 6.8775,16.6569 0.4144,6.3877 0.1517,7.8723 -2.2679,12.8177 -5.6969,11.6441 -20.4441,17.4678 -32.7697,12.941 z m 16.2621,-10.3462 c 4.9412,-2.642 7.4538,-7.4144 7.4387,-14.1288 -0.016,-7.0755 -2.5245,-11.3796 -8.2469,-14.1497 -6.9229,-3.3513 -13.4591,-1.4201 -18.6289,5.5044 -2.9293,3.9234 -2.8314,12.874 0.1944,17.7698 4.0295,6.5199 12.3577,8.6857 19.2427,5.0043 z m -2539.01556,-28.2396 0,-39.10284 16.25,0.3717 c 15.07973,0.34494 16.66179,0.56334 21.96806,3.03284 7.5523,3.5148 15.10547,10.724 18.51977,17.6765 2.5503,5.1931 2.76217,6.545 2.76217,17.6245 0,11.2394 -0.18063,12.3486 -2.84974,17.5 -6.60796,12.7534 -17.15595,19.5286 -32.75121,21.0368 -5.16947,0.5 -12.66155,0.9212 -16.64905,0.9361 l -7.25,0.027 0,-39.1027 z m 30.87745,25.646 c 15.19227,-5.3602 22.17556,-23.695 14.78121,-38.8085 -4.83199,-9.8763 -11.69732,-13.7644 -26.90866,-15.2394 l -6.75,-0.6546 0,28.7264 0,28.7263 7.28712,-0.616 c 4.00792,-0.3388 9.22357,-1.2992 11.59033,-2.1342 z m 232.12255,-11.5433 0,-25 5.5,0 5.5,0 0,25 0,25 -5.5,0 -5.5,0 z m 148,0 0,-25 5.5,0 c 4.83333,0 5.5,0.2424 5.5,2 0,2.5035 -0.0633,2.5091 5.59602,-0.5 8.96951,-4.7691 19.47024,-2.126 23.34387,5.8759 1.86067,3.8436 2.06011,6.1128 2.06011,23.4398 l 0,19.1843 -5.5,0 -5.5,0 0,-16.9529 c 0,-10.4699 -0.43202,-17.9012 -1.12972,-19.4324 -2.72955,-5.9907 -12.67717,-5.855 -16.21331,0.2212 -1.63769,2.814 -2.01923,5.9033 -2.43924,19.75 l -0.49788,16.4141 -5.35992,0 -5.35993,0 z m 173,-14 0,-39.00004 21.5,0 21.5,0 0,5.00004 0,5 -15.5,0 -15.5,0 0,9.5 0,9.5 15,0 15,0 0,5.5 0,5.5 -15,0 -15,0 0,13.5 0,13.5 15.5,0 15.5,0 0,5.5 0,5.5 -21.5,0 -21.5,0 z m 87,14 0,-25 5.5,0 c 4.83333,0 5.5,0.2424 5.5,2 0,2.5177 0.40324,2.5011 4.00952,-0.1651 7.02547,-5.1942 20.07209,-2.44 24.4676,5.1651 1.80601,3.1248 2.05938,5.6174 2.36331,23.25 l 0.34043,19.75 -5.59043,0 -5.59043,0 -0.0239,-14.75 c -0.0349,-21.5587 -1.16486,-24.9291 -8.69671,-25.9393 -3.4369,-0.461 -4.47012,-0.1123 -7.38758,2.4929 l -3.39181,3.0289 -0.3326,17.5837 -0.33261,17.5838 -5.41739,0 -5.4174,0 z m 179,0 0,-25 5.5,0 5.5,0 0,25 0,25 -5.5,0 -5.5,0 z m 56,0 0,-25 5.5,0 c 5.28562,0 5.5,0.1035 5.5,2.655 0,2.4464 0.13747,2.5345 1.75,1.1206 5.86879,-5.1457 13.27493,-6.0688 20.26523,-2.5256 7.75976,3.9332 8.43378,6.1519 8.80983,29 l 0.32506,19.75 -5.57506,0 -5.57506,0 -0.0564,-15.75 c -0.0338,-9.435 -0.535,-17.1486 -1.25,-19.2382 -2.33502,-6.8243 -11.56318,-7.7938 -16.09773,-1.6912 -1.89716,2.5531 -2.12752,4.4253 -2.43012,19.75 l -0.33433,16.9294 -5.41571,0 -5.41571,0 z m 262,0 0,-25 5.5,0 c 4.8053,0 5.5,0.2488 5.5,1.9699 0,1.8682 0.1878,1.8424 3.6395,-0.5 3.9281,-2.6656 8.2214,-3.1115 13.2113,-1.372 3.7485,1.3067 3.7795,1.5513 0.9374,7.4011 -1.6211,3.3368 -2.6225,4.3743 -3.75,3.8853 -3.17,-1.3748 -6.8792,-1.5397 -9.008,-0.4004 -4.0522,2.1686 -5.0302,6.7346 -5.0302,23.484 l 0,15.5321 -5.5,0 -5.5,0 z m 68,0 0,-25 6,0 6,0 0,25 0,25 -6,0 -6,0 z m 56,0 0,-25 5.5,0 c 4.9067,0 5.5,0.2248 5.5,2.0834 0,1.1458 0.3375,1.9103 0.75,1.6989 8.1506,-4.1772 10.8778,-4.9764 15.4739,-4.5348 5.2166,0.5013 8.8368,2.6159 12.2143,7.1345 1.898,2.5392 2.0862,4.3819 2.369,23.1882 l 0.3072,20.4298 -5.5572,0 -5.5572,0 0,-16.3508 c 0,-8.9929 -0.4792,-17.7254 -1.0649,-19.4055 -2.3082,-6.6214 -12.5384,-6.8337 -16.3185,-0.3387 -1.6931,2.9091 -2.0469,5.786 -2.4291,19.75 l -0.4472,16.345 -5.3702,0 -5.3701,0 z m 461.99996,0 0,-25 5.4304,0 c 4.7484,0 5.4706,0.2638 5.75,2.0999 l 0.3196,2.0998 2.6689,-2.1086 c 5.5152,-4.3574 13.646,-3.9347 18.9106,0.9831 l 3.2227,3.0105 2.5989,-2.4787 c 5.2083,-4.9674 12.6543,-5.9678 19.555,-2.6272 7.3903,3.5775 7.9983,5.6681 8.3676,28.7712 l 0.3237,20.25 -5.5737,0 -5.5737,0 -0.01,-15.75 c 0,-8.6625 -0.4599,-17.3857 -1.0152,-19.385 -1.9013,-6.8448 -10.8262,-7.5095 -14.0636,-1.0474 -0.9113,1.819 -1.463,8.0738 -1.714,19.4324 l -0.3702,16.75 -5.4157,0 -5.4157,0 0,-16.0321 c 0,-17.7148 -0.9938,-22.0967 -5.4745,-24.1382 -2.0882,-0.9515 -3.2277,-0.8653 -5.9927,0.4533 -4.6838,2.2336 -5.5204,5.937 -5.5272,24.467 l 0,15.25 -5.5,0 -5.5,0 0,-25 z m 113,0 0,-25 6,0 c 5.3027,0 6,0.2289 6,1.9699 0,1.8682 0.1878,1.8424 3.6395,-0.5 5.9033,-4.0061 13.8485,-3.0081 18.6961,2.3485 1.8289,2.0209 1.8357,2.0197 6.3292,-1.1477 3.9088,-2.7551 5.3299,-3.1707 10.8434,-3.1707 7.2062,0 10.5986,1.8438 13.9918,7.6046 1.7804,3.0227 2.0374,5.5635 2.3404,23.1454 l 0.3405,19.75 -5.4915,0 -5.4915,0 -0.3489,-17.2956 c -0.2914,-14.4385 -0.6402,-17.7397 -2.1116,-19.9841 -2.113,-3.2229 -5.3253,-4.2077 -9.0748,-2.7821 -4.6689,1.7751 -5.6626,5.9919 -5.6626,24.0297 l 0,16.0321 -5.5,0 -5.5,0 0,-14.5572 c 0,-16.6107 -1.1569,-22.8443 -4.6667,-25.144 -3.6053,-2.3623 -8.3641,-0.6878 -10.5817,3.7234 -1.45,2.8841 -1.7488,6.252 -1.75,19.7278 l 0,16.25 -6,0 -6,0 0,-25 z m 202,0 0,-25 6,0 c 5.3048,0 6,0.2285 6,1.9719 0,1.8908 0.1912,1.8702 4.6489,-0.5 8.8438,-4.7023 19.5841,-1.9625 23.7461,6.0575 1.8085,3.4849 2.0965,6.2182 2.446,23.2103 l 0.3961,19.2603 -6.1186,0 -6.1185,0 -0.015,-17.25 c -0.01,-11.8576 -0.4087,-18.0315 -1.2749,-19.75 -1.6911,-3.3552 -7.3708,-4.7975 -11.7498,-2.9836 -5.0921,2.1092 -5.9606,5.5992 -5.9606,23.9515 l 0,16.0321 -6,0 -6,0 0,-25 z m 89,0 0,-25 5.5,0 5.5,0 0,25 0,25 -5.5,0 -5.5,0 z m 233,5.5 0,-19.5 -2.5,0 c -2.3636,0 -2.5,-0.3 -2.5,-5.5 0,-5.2 0.1364,-5.5 2.5,-5.5 2.4815,0 2.5,-0.067 2.5,-9 l 0,-9 5.5,0 5.5,0 0,9 0,9 4.5,0 4.5,0 0,5.5 0,5.5 -4.5,0 -4.5,0 0,19.5 0,19.5 -5.5,0 -5.5,0 z m 60,-5.5 0,-25 5.5,0 5.5,0 0,25 0,25 -5.5,0 -5.5,0 z m 151,0 0,-25 5.5,0 c 4.8333,0 5.5,0.2424 5.5,2 0,2.5035 -0.063,2.5091 5.596,-0.5 8.6692,-4.6094 18.9412,-2.2267 23.2199,5.3863 2.0391,3.6281 2.1841,5.1878 2.1841,23.4999 l 0,19.6138 -5.5,0 -5.5,0 0,-17.0496 c 0,-19.7242 -0.7441,-22.4365 -6.4488,-23.5068 -4.8451,-0.9089 -8.716,0.6744 -10.9342,4.4726 -1.5897,2.7219 -1.983,5.946 -2.3993,19.6697 l -0.4978,16.4141 -5.36,0 -5.3599,0 z m -2338.26706,-39.75 c -4.55129,-5.0503 -1.70688,-12.25 4.83968,-12.25 6.57621,0 9.80297,7.073 5.38846,11.8115 -2.51358,2.698 -7.98069,2.9324 -10.22814,0.4385 z m 586.33968,-0.8848 c -2.62301,-3.3347 -2.63419,-6.3852 -0.0336,-9.1766 2.95607,-3.17304 8.21097,-2.95764 10.88846,0.4463 1.1399,1.4491 2.07256,3.4135 2.07256,4.3651 0,3.354 -3.9064,7 -7.5,7 -2.43322,0 -3.92421,-0.7238 -5.42742,-2.6348 z m 386.92742,0.6348 c -2.5536,-2.5535 -2.6455,-8.1059 -0.1713,-10.345 2.5161,-2.277 7.726,-2.1003 10.1713,0.345 4.3282,4.3282 1.1316,12 -5,12 -1.6667,0 -3.8889,-0.8889 -5,-2 z m 921.07256,-0.6348 c -2.6146,-3.324 -2.6146,-5.4064 0,-8.7303 4.0859,-5.19454 12.9274,-2.1993 12.9274,4.3794 0,6.3459 -8.9806,9.3684 -12.9274,4.3509 z m 292.9664,0.4463 c -4.3823,-4.7038 -1.1893,-11.8115 5.306,-11.8115 4.1071,0 6.9883,2.886 6.9883,7 0,6.4345 -7.9014,9.5268 -12.2943,4.8115 z"
       id="path2996"
       inkscape:connector-curvature="0"
       sodipodi:nodetypes="cssscsccsscscsscsscccsscssscscsssscsccssccsscssscccsssscccssccccscssssscccscccssssscsccsccscccscccccsscscccsssccscccsccssscscccssssccsccsscccsssscccscscssscccccccccssscscccscssccsssscssssssscscccsscsccssccscssscssssssccccccsscccccsccccssccccssccscccccscsscccsscsccsssccsssccsscssscscssccsssssccccccsccccsccccccccccccssssscccscsscccccccccccccccccccccccccccccccssssscccssccccccccccccccccccsscsscccsscsccccccsscscscscccccccccccccccssccsscccscscccccccsccsccscscccccsscccscsccccccccsssscssscccsccscccsscccccccccsssssccccccsccccccccccccccccsssscccccccccccccccccccccccccccsscsscccsccsccccsssscscssccssscccscssss" />
    <g
       id="layer1-3"
       transform="matrix(4.8988906,0,0,4.8988906,-1153.878,-1647.177)">
      <g
         id="layer3">
        <g
           id="g3876">
          <path
             style="fill:#ec0b7b;fill-opacity:1;stroke:#ff00ff;stroke-width:0;stroke-linecap:butt;stroke-linejoin:miter;stroke-miterlimit:0;stroke-opacity:1;stroke-dasharray:none"
             id="path3044"
             d="m 504.26279,434.91739 -14.2684,43.56282 21.2132,12.37437 -23.61232,41.03745 45.58314,-46.84582 -21.08694,-11.74303 16.28871,-38.13326 z"
             inkscape:connector-curvature="0" />
          <path
             style="fill:#009fe2;fill-opacity:1;stroke:#00ffff;stroke-width:0;stroke-linecap:butt;stroke-linejoin:miter;stroke-miterlimit:4;stroke-opacity:1;stroke-dasharray:none"
             id="path3044-6"
             d="m 510.51311,432.0132 -14.2684,43.56283 21.2132,12.37437 -23.61232,41.03744 45.58314,-46.84582 -21.08694,-11.74302 16.28871,-38.13326 z"
             inkscape:connector-curvature="0" />
          <path
             style="fill:#181a82;fill-opacity:1;stroke:#0000ff;stroke-width:0;stroke-linecap:butt;stroke-linejoin:miter;stroke-miterlimit:4;stroke-opacity:1;stroke-dasharray:none"
             id="path3044-8"
             d="m 509.46843,434.98911 -13.28125,40.59375 21.21875,12.375 -18.65625,32.4375 34.375,-35.34375 -21.09375,-11.75 16.28125,-38.125 z"
             inkscape:connector-curvature="0" />
        </g>
      </g>
      <g
         id="text2992"
         style="font-size:72px;font-style:normal;font-variant:normal;font-weight:normal;font-stretch:normal;line-height:125%;letter-spacing:0px;word-spacing:0px;fill:#000000;fill-opacity:1;stroke:none;font-family:Anke;-inkscape-font-specification:Anke">
        <path
           id="path3051"
           d="m 145.19701,461.89722 6.47973,0 0,38.37524 -6.47973,0 z m 3.24096,-7.27295 c -1.1045,4e-5 -2.02881,-0.37203 -2.77295,-1.11621 -0.74414,-0.7441 -1.11621,-1.66768 -1.11621,-2.77076 0,-1.10444 0.37207,-2.02875 1.11621,-2.77294 0.74414,-0.74409 1.66845,-1.11616 2.77295,-1.11622 1.10449,6e-5 2.02844,0.37213 2.77185,1.11622 0.7434,0.74419 1.1151,1.6685 1.11512,2.77294 -2e-5,1.10308 -0.37172,2.02666 -1.11512,2.77076 -0.74341,0.74418 -1.66736,1.11625 -2.77185,1.11621 z"
           inkscape:connector-curvature="0" />
      </g>
      <g
         id="text2996"
         style="font-size:72px;font-style:normal;font-variant:normal;font-weight:normal;font-stretch:normal;line-height:125%;letter-spacing:0px;word-spacing:0px;fill:#000000;fill-opacity:1;stroke:none;font-family:Anke;-inkscape-font-specification:Anke">
        <path
           id="path3048"
           d="m 214.34358,466.5957 c 3.12006,3.11869 4.68012,6.86209 4.68018,11.23023 l 0,22.46484 -6.48194,0 0,-22.46484 c -5e-5,-1.2949 -0.252,-2.51841 -0.75586,-3.67053 -0.50395,-1.15208 -1.18767,-2.14817 -2.05114,-2.98829 -0.86358,-0.84005 -1.87139,-1.51205 -3.02344,-2.01599 -1.15215,-0.50387 -2.37639,-0.75582 -3.67273,-0.75586 -1.29643,4e-5 -2.52067,0.25199 -3.67273,0.75586 -1.15214,0.50394 -2.14786,1.17594 -2.98718,2.01599 -0.83939,0.84012 -1.51139,1.83621 -2.01599,2.98829 -0.50468,1.15212 -0.75699,2.37563 -0.75696,3.67053 l 0,22.46484 -6.47974,0 0,-22.46484 c -2e-5,-1.2949 -0.25198,-2.51841 -0.75586,-3.67053 -0.50393,-1.15208 -1.18764,-2.14817 -2.05114,-2.98829 -0.86355,-0.84005 -1.87136,-1.51205 -3.02344,-2.01599 -1.15212,-0.50387 -2.37636,-0.75582 -3.67273,-0.75586 -1.2964,4e-5 -2.52065,0.25199 -3.67273,0.75586 -1.15211,0.50394 -2.14821,1.17594 -2.98828,2.01599 -0.8401,0.84012 -1.5121,1.83621 -2.01599,2.98829 -0.50392,1.15212 -0.75587,2.37563 -0.75586,3.67053 l 0,22.46484 -6.47974,0 0,-38.37524 6.47974,0 0,3.09594 c 2.78465,-2.06392 5.92894,-3.0959 9.43286,-3.09594 2.15916,4e-5 4.19895,0.39591 6.11938,1.18762 1.92039,0.79178 3.6489,1.95597 5.18555,3.49255 0.52731,0.52738 1.00705,1.07889 1.43921,1.65454 0.4321,-0.57565 0.91183,-1.12716 1.43921,-1.65454 3.12008,-3.12008 6.86422,-4.68013 11.23242,-4.68017 2.1606,4e-5 4.20076,0.39591 6.12048,1.18762 1.91963,0.79178 3.64778,1.95597 5.18445,3.49255 z"
           inkscape:connector-curvature="0" />
      </g>
      <g
         id="text3000"
         style="font-size:72px;font-style:normal;font-variant:normal;font-weight:normal;font-stretch:normal;line-height:125%;letter-spacing:0px;word-spacing:0px;fill:#000000;fill-opacity:1;stroke:none;font-family:Anke;-inkscape-font-specification:Anke">
        <path
           id="path3045"
           d="m 264.19487,462.00482 0,38.37525 -6.48193,0 0,-4.823 c -1.77543,1.53516 -3.74308,2.72278 -5.90296,3.56286 -2.15994,0.84009 -4.44033,1.26014 -6.84118,1.26014 -2.59133,0 -5.03908,-0.48011 -7.34327,-1.44031 -2.30421,-0.9602 -4.36817,-2.35217 -6.19189,-4.17591 -1.82374,-1.82372 -3.2157,-3.89977 -4.1759,-6.22814 -0.96021,-2.32836 -1.44031,-4.7882 -1.44031,-7.37952 0,-2.59275 0.4801,-5.04087 1.44031,-7.34436 0.9602,-2.30344 2.35216,-4.36704 4.1759,-6.1908 1.82372,-1.82516 3.88768,-3.21749 6.19189,-4.177 2.30419,-0.95943 4.75194,-1.43917 7.34327,-1.43921 2.40085,4e-5 4.68124,0.42008 6.84118,1.26013 2.15988,0.84013 4.12753,2.02775 5.90296,3.56287 l 0,-4.823 z m -19.22607,31.89551 c 1.77683,1e-5 3.4332,-0.33618 4.96911,-1.00855 1.53586,-0.67235 2.87986,-1.58421 4.03198,-2.73559 1.15207,-1.15136 2.06394,-2.49535 2.7356,-4.03198 0.6716,-1.53661 1.00741,-3.19261 1.00745,-4.96802 -4e-5,-1.7285 -0.33585,-3.3607 -1.00745,-4.89661 -0.67166,-1.53586 -1.58353,-2.87985 -2.7356,-4.03198 -1.15212,-1.15207 -2.49612,-2.06393 -4.03198,-2.7356 -1.53591,-0.67159 -3.19228,-1.00741 -4.96911,-1.00744 -1.72707,3e-5 -3.35854,0.33585 -4.89441,1.00744 -1.53591,0.67167 -2.8799,1.58353 -4.03199,2.7356 -1.15211,1.15213 -2.06434,2.49612 -2.73669,4.03198 -0.67237,1.53591 -1.00855,3.16811 -1.00855,4.89661 0,1.77541 0.33618,3.43141 1.00855,4.96802 0.67235,1.53663 1.58458,2.88062 2.73669,4.03198 1.15209,1.15138 2.49608,2.06324 4.03199,2.73559 1.53587,0.67237 3.16734,1.00856 4.89441,1.00855 z"
           inkscape:connector-curvature="0" />
      </g>
      <g
         id="text3004"
         style="font-size:72px;font-style:normal;font-variant:normal;font-weight:normal;font-stretch:normal;line-height:125%;letter-spacing:0px;word-spacing:0px;fill:#000000;fill-opacity:1;stroke:none;font-family:Anke;-inkscape-font-specification:Anke">
        <path
           id="path3041"
           d="m 309.55869,461.82324 0,34.84644 c -5e-5,2.59277 -0.47978,5.05297 -1.43921,7.38061 -0.95951,2.32763 -2.35185,4.40405 -4.17701,6.22925 -1.82376,1.82372 -3.89944,3.21532 -6.22705,4.17481 -2.32766,0.95945 -4.78786,1.43919 -7.38061,1.4392 -1.53518,-10e-6 -3.04689,-0.17982 -4.53516,-0.53942 -1.48829,-0.35964 -2.92823,-0.8998 -4.31982,-1.62049 -2.63966,-1.39161 -4.84791,-3.31129 -6.62476,-5.75903 l 5.18555,-3.81665 c 1.24657,1.58495 2.73412,2.85717 4.46265,3.81665 1.82371,0.95946 3.76755,1.4392 5.83154,1.43921 1.77683,-10e-6 3.4332,-0.33583 4.96911,-1.00745 1.53587,-0.67164 2.87986,-1.5835 4.03199,-2.73559 1.15207,-1.15211 2.06393,-2.4961 2.73559,-4.03199 0.6716,-1.53588 1.00741,-3.19226 1.00745,-4.96911 l 0,-1.29419 c -1.77542,1.53516 -3.74307,2.72278 -5.90296,3.56286 -2.15993,0.84009 -4.44033,1.26014 -6.84118,1.26014 -2.59133,0 -5.03908,-0.48011 -7.34326,-1.44031 -2.30421,-0.9602 -4.36818,-2.35217 -6.1919,-4.1759 -1.82373,-1.82373 -3.2157,-3.89978 -4.1759,-6.22815 -0.96021,-2.32836 -1.44031,-4.7882 -1.44031,-7.37952 0,-2.59275 0.4801,-5.04087 1.44031,-7.34436 0.9602,-2.30344 2.35217,-4.36704 4.1759,-6.1908 1.82372,-1.82516 3.88769,-3.21749 6.1919,-4.177 2.30418,-0.95943 4.75193,-1.43917 7.34326,-1.43921 2.40085,4e-5 4.68125,0.42008 6.84118,1.26013 2.15989,0.84013 4.12754,2.02775 5.90296,3.56287 l 0,-4.823 z m -19.22388,31.89551 c 1.77683,10e-6 3.4332,-0.33617 4.96911,-1.00854 1.53587,-0.67236 2.87986,-1.58422 4.03199,-2.7356 1.15207,-1.15136 2.06393,-2.49535 2.73559,-4.03198 0.6716,-1.53661 1.00741,-3.16844 1.00745,-4.89551 l 0,-0.0725 c -4e-5,-1.7285 -0.33585,-3.3607 -1.00745,-4.89661 -0.67166,-1.53586 -1.58352,-2.87985 -2.73559,-4.03198 -1.15213,-1.15207 -2.49612,-2.06393 -4.03199,-2.7356 -1.53591,-0.67159 -3.19228,-1.00741 -4.96911,-1.00744 -1.72707,3e-5 -3.35854,0.33585 -4.89441,1.00744 -1.5359,0.67167 -2.8799,1.58353 -4.03198,2.7356 -1.15211,1.15213 -2.06434,2.49612 -2.7367,4.03198 -0.67237,1.53591 -1.00855,3.16811 -1.00854,4.89661 -1e-5,1.77541 0.33617,3.43141 1.00854,4.96802 0.67236,1.53663 1.58459,2.88062 2.7367,4.03198 1.15208,1.15138 2.49608,2.06324 4.03198,2.7356 1.53587,0.67237 3.16734,1.00855 4.89441,1.00854 z"
           inkscape:connector-curvature="0" />
      </g>
      <g
         id="text3008"
         style="font-size:72px;font-style:normal;font-variant:normal;font-weight:normal;font-stretch:normal;line-height:125%;letter-spacing:0px;word-spacing:0px;fill:#000000;fill-opacity:1;stroke:none;font-family:Anke;-inkscape-font-specification:Anke">
        <path
           id="path3038"
           d="m 319.2959,462.01266 6.47973,0 0,38.37525 -6.47973,0 z m 3.24097,-7.27294 c -1.1045,4e-5 -2.02882,-0.37203 -2.77295,-1.11622 -0.74415,-0.74409 -1.11622,-1.66767 -1.11621,-2.77075 -1e-5,-1.10444 0.37206,-2.02875 1.11621,-2.77295 0.74413,-0.74408 1.66845,-1.11615 2.77295,-1.11621 1.10448,6e-5 2.02843,0.37213 2.77185,1.11621 0.74339,0.7442 1.1151,1.66851 1.11511,2.77295 -1e-5,1.10308 -0.37172,2.02666 -1.11511,2.77075 -0.74342,0.74419 -1.66737,1.11626 -2.77185,1.11622 z"
           inkscape:connector-curvature="0" />
      </g>
      <g
         id="text3012"
         style="font-size:72px;font-style:normal;font-variant:normal;font-weight:normal;font-stretch:normal;line-height:125%;letter-spacing:0px;word-spacing:0px;fill:#000000;fill-opacity:1;stroke:none;font-family:Anke;-inkscape-font-specification:Anke">
        <path
           id="path3035"
           d="m 361.7674,466.6297 c 1.53658,1.53519 2.70077,3.25088 3.49255,5.14709 0.79171,1.89627 1.18759,3.92398 1.18762,6.08313 l 0,22.46485 -6.47974,0 0,-22.46485 c -2e-5,-1.29489 -0.25198,-2.5184 -0.75585,-3.67053 -0.50394,-1.15207 -1.18802,-2.14816 -2.05225,-2.98828 -0.86428,-0.84006 -1.87246,-1.51205 -3.02454,-2.01599 -1.15212,-0.50387 -2.37563,-0.75583 -3.67053,-0.75586 -1.2964,3e-5 -2.52065,0.25199 -3.67273,0.75586 -1.15211,0.50394 -2.1482,1.17593 -2.98828,2.01599 -0.8401,0.84012 -1.5121,1.83621 -2.01599,2.98828 -0.50392,1.15213 -0.75587,2.37564 -0.75586,3.67053 l 0,22.46485 -6.47974,0 0,-38.37525 6.47974,0 0,3.09595 c 2.78466,-2.06393 5.92894,-3.09591 9.43286,-3.09595 2.15916,4e-5 4.19895,0.39592 6.11939,1.18763 1.92038,0.79178 3.64816,1.95596 5.18335,3.49255 z"
           inkscape:connector-curvature="0" />
      </g>
      <g
         id="text3016"
         style="font-size:72px;font-style:normal;font-variant:normal;font-weight:normal;font-stretch:normal;line-height:125%;letter-spacing:0px;word-spacing:0px;fill:#000000;fill-opacity:1;stroke:none;font-family:Anke;-inkscape-font-specification:Anke">
        <path
           id="path3032"
           d="m 411.24844,462.00482 0,38.37525 -6.48193,0 0,-4.823 c -1.77542,1.53516 -3.74307,2.72278 -5.90295,3.56286 -2.15994,0.84009 -4.44034,1.26014 -6.84119,1.26014 -2.59133,0 -5.03908,-0.48011 -7.34326,-1.44031 -2.30421,-0.9602 -4.36818,-2.35217 -6.1919,-4.17591 -1.82373,-1.82372 -3.2157,-3.89977 -4.1759,-6.22814 -0.96021,-2.32836 -1.44031,-4.7882 -1.44031,-7.37952 0,-2.59275 0.4801,-5.04087 1.44031,-7.34436 0.9602,-2.30344 2.35217,-4.36704 4.1759,-6.1908 1.82372,-1.82516 3.88769,-3.21749 6.1919,-4.177 2.30418,-0.95943 4.75193,-1.43917 7.34326,-1.43921 2.40085,4e-5 4.68125,0.42008 6.84119,1.26013 2.15988,0.84013 4.12753,2.02775 5.90295,3.56287 l 0,-4.823 z m -19.22607,31.89551 c 1.77683,1e-5 3.4332,-0.33618 4.96912,-1.00855 1.53586,-0.67235 2.87985,-1.58421 4.03198,-2.73559 1.15207,-1.15136 2.06393,-2.49535 2.73559,-4.03198 0.6716,-1.53661 1.00742,-3.19261 1.00745,-4.96802 -3e-5,-1.7285 -0.33585,-3.3607 -1.00745,-4.89661 -0.67166,-1.53586 -1.58352,-2.87985 -2.73559,-4.03198 -1.15213,-1.15207 -2.49612,-2.06393 -4.03198,-2.7356 -1.53592,-0.67159 -3.19229,-1.00741 -4.96912,-1.00744 -1.72707,3e-5 -3.35854,0.33585 -4.89441,1.00744 -1.5359,0.67167 -2.8799,1.58353 -4.03198,2.7356 -1.15211,1.15213 -2.06434,2.49612 -2.7367,4.03198 -0.67237,1.53591 -1.00855,3.16811 -1.00854,4.89661 -10e-6,1.77541 0.33617,3.43141 1.00854,4.96802 0.67236,1.53663 1.58459,2.88062 2.7367,4.03198 1.15208,1.15138 2.49608,2.06324 4.03198,2.73559 1.53587,0.67237 3.16734,1.00856 4.89441,1.00855 z"
           inkscape:connector-curvature="0" />
      </g>
      <g
         id="text3020"
         style="font-size:72px;font-style:normal;font-variant:normal;font-weight:normal;font-stretch:normal;line-height:125%;letter-spacing:0px;word-spacing:0px;fill:#000000;fill-opacity:1;stroke:none;font-family:Anke;-inkscape-font-specification:Anke">
        <path
           id="path3029"
           d="m 437.88803,462.00482 c 3.02341,-0.14498 5.92746,0.40653 8.71216,1.65454 l -2.59277,5.90406 c -1.82376,-0.81589 -3.74344,-1.17551 -5.75904,-1.07886 -2.11232,0.14358 -4.0569,0.71927 -5.83374,1.72705 -2.01564,1.19973 -3.55152,2.75979 -4.60766,4.68017 -1.10304,1.96878 -1.65455,4.03274 -1.65454,6.1919 l 0,19.29639 -6.48194,0 0,-38.37525 6.48194,0 0,4.823 c 0.91112,-0.86422 1.91893,-1.58419 3.02343,-2.15991 2.73632,-1.6318 5.64036,-2.5195 8.71216,-2.66309 z"
           inkscape:connector-curvature="0" />
      </g>
      <g
         id="text3024"
         style="font-size:72px;font-style:normal;font-variant:normal;font-weight:normal;font-stretch:normal;line-height:125%;letter-spacing:0px;word-spacing:0px;fill:#000000;fill-opacity:1;stroke:none;font-family:Anke;-inkscape-font-specification:Anke">
        <path
           id="path3026"
           d="m 457.65164,516.05981 6.1919,-15.69506 -15.04908,-38.37525 6.98511,0 11.52027,29.52027 11.51806,-29.52027 6.98511,0 -21.16846,54.07031 -6.98291,0 z"
           inkscape:connector-curvature="0" />
      </g>
      <g
         id="text3028"
         style="font-size:72px;font-style:normal;font-variant:normal;font-weight:normal;font-stretch:normal;line-height:125%;letter-spacing:0px;word-spacing:0px;fill:#000000;fill-opacity:1;stroke:none;font-family:Anke;-inkscape-font-specification:Anke">
        <path
           id="path3023"
           d="m 572.77069,466.6297 c 1.53512,1.53519 2.69894,3.25088 3.49146,5.14709 0.79244,1.89627 1.18868,3.92398 1.18872,6.08313 l 0,22.46485 -6.47974,0 0,-22.46485 c -3e-5,-1.29489 -0.25235,-2.5184 -0.75696,-3.67053 -0.50466,-1.15207 -1.18875,-2.14816 -2.05224,-2.98828 -0.86355,-0.84006 -1.87137,-1.51205 -3.02344,-2.01599 -1.15212,-0.50387 -2.37636,-0.75583 -3.67273,-0.75586 -1.29641,3e-5 -2.52028,0.25199 -3.67163,0.75586 -1.15138,0.50394 -2.14711,1.17593 -2.98718,2.01599 -0.8401,0.84012 -1.5121,1.83621 -2.016,2.98828 -0.50391,1.15213 -0.75586,2.37564 -0.75585,3.67053 l 0,22.46485 -6.48194,0 0,-56.30493 6.48194,0 0,21.02563 c 2.78319,-2.06393 5.92674,-3.09591 9.43066,-3.09595 2.16062,4e-5 4.20078,0.39592 6.12048,1.18763 1.91965,0.79178 3.6478,1.95596 5.18445,3.49255 z"
           inkscape:connector-curvature="0" />
      </g>
      <g
         id="text3032"
         style="font-size:72px;font-style:normal;font-variant:normal;font-weight:normal;font-stretch:normal;line-height:125%;letter-spacing:0px;word-spacing:0px;fill:#000000;fill-opacity:1;stroke:none;font-family:Anke;-inkscape-font-specification:Anke">
        <path
           id="path3020"
           d="m 602.99548,500.32477 c -2.59132,0 -5.03908,-0.4801 -7.34326,-1.44031 -2.30421,-0.9602 -4.36817,-2.35217 -6.19189,-4.1759 -1.82374,-1.82373 -3.21571,-3.89977 -4.17591,-6.22815 -0.9602,-2.32836 -1.44031,-4.78819 -1.4403,-7.37952 -10e-6,-2.59275 0.4801,-5.04087 1.4403,-7.34436 0.9602,-2.30344 2.35217,-4.36703 4.17591,-6.1908 1.82372,-1.82516 3.88768,-3.21749 6.19189,-4.177 2.30418,-0.95943 4.75194,-1.43917 7.34326,-1.43921 2.59275,4e-5 5.05296,0.47978 7.38062,1.43921 2.3276,0.95951 4.40402,2.35184 6.22925,4.177 1.82369,1.82377 3.21566,3.88736 4.1759,6.1908 0.96017,2.30349 1.44027,4.75161 1.44031,7.34436 -4e-5,2.59133 -0.48014,5.05116 -1.44031,7.37952 -0.96024,2.32838 -2.35221,4.40442 -4.1759,6.22815 -1.82523,1.82373 -3.90165,3.2157 -6.22925,4.1759 -2.32766,0.96021 -4.78787,1.44031 -7.38062,1.44031 z m 0,-31.89551 c -1.72707,3e-5 -3.35853,0.33585 -4.89441,1.00745 -1.5359,0.67166 -2.87989,1.58352 -4.03198,2.73559 -1.15211,1.15213 -2.06434,2.49612 -2.73669,4.03198 -0.67237,1.53592 -1.00856,3.16812 -1.00855,4.89661 -10e-6,1.77541 0.33618,3.43141 1.00855,4.96802 0.67235,1.53663 1.58458,2.88063 2.73669,4.03198 1.15209,1.15138 2.49608,2.06324 4.03198,2.7356 1.53588,0.67237 3.16734,1.00855 4.89441,1.00854 1.77684,10e-6 3.43321,-0.33617 4.96912,-1.00854 1.53586,-0.67236 2.87985,-1.58422 4.03198,-2.7356 1.15207,-1.15135 2.06393,-2.49535 2.7356,-4.03198 0.6716,-1.53661 1.00741,-3.19261 1.00744,-4.96802 -3e-5,-1.72849 -0.33584,-3.36069 -1.00744,-4.89661 -0.67167,-1.53586 -1.58353,-2.87985 -2.7356,-4.03198 -1.15213,-1.15207 -2.49612,-2.06393 -4.03198,-2.73559 -1.53591,-0.6716 -3.19228,-1.00742 -4.96912,-1.00745 z"
           inkscape:connector-curvature="0" />
      </g>
      <g
         id="text3036"
         style="font-size:72px;font-style:normal;font-variant:normal;font-weight:normal;font-stretch:normal;line-height:125%;letter-spacing:0px;word-spacing:0px;fill:#000000;fill-opacity:1;stroke:none;font-family:Anke;-inkscape-font-specification:Anke">
        <path
           id="path3017"
           d="m 646.99695,461.99454 c 3.02341,-0.14498 5.92746,0.40653 8.71216,1.65454 l -2.59278,5.90405 c -1.82375,-0.81589 -3.74343,-1.1755 -5.75903,-1.07886 -2.11232,0.14359 -4.0569,0.71927 -5.83374,1.72705 -2.01564,1.19974 -3.55153,2.7598 -4.60767,4.68018 -1.10303,1.96877 -1.65455,4.03274 -1.65454,6.19189 l 0,19.29639 -6.48193,0 0,-38.37524 6.48193,0 0,4.823 c 0.91112,-0.86423 1.91894,-1.5842 3.02344,-2.15992 2.73631,-1.6318 5.64036,-2.51949 8.71216,-2.66308 z"
           inkscape:connector-curvature="0" />
      </g>
      <g
         id="text3040"
         style="font-size:72px;font-style:normal;font-variant:normal;font-weight:normal;font-stretch:normal;line-height:125%;letter-spacing:0px;word-spacing:0px;fill:#000000;fill-opacity:1;stroke:none;font-family:Anke;-inkscape-font-specification:Anke">
        <path
           id="path3014"
           d="m 679.93524,462.01584 0,6.47973 -8.71216,0 0,31.89551 -6.47973,0 0,-31.89551 -4.75269,0 0,-6.47973 4.75269,0 0,-17.92969 6.47973,0 0,17.92969 8.71216,0 z"
           inkscape:connector-curvature="0" />
      </g>
    </g>
  </g>
</svg>
