<?xml version="1.0" encoding="UTF-8" standalone="no"?>
<!-- Created with Inkscape (http://www.inkscape.org/) -->

<svg
   xmlns:dc="http://purl.org/dc/elements/1.1/"
   xmlns:cc="http://creativecommons.org/ns#"
   xmlns:rdf="http://www.w3.org/1999/02/22-rdf-syntax-ns#"
   xmlns:svg="http://www.w3.org/2000/svg"
   xmlns="http://www.w3.org/2000/svg"
   xmlns:sodipodi="http://sodipodi.sourceforge.net/DTD/sodipodi-0.dtd"
   xmlns:inkscape="http://www.inkscape.org/namespaces/inkscape"
   width="2667"
   height="665"
   id="svg2"
   version="1.1"
   inkscape:version="0.48.4 r"
   sodipodi:docname="ims_top.svg">
  <defs
     id="defs4" />
  <sodipodi:namedview
     id="base"
     pagecolor="#ffffff"
     bordercolor="#666666"
     borderopacity="1.0"
     inkscape:pageopacity="0.0"
     inkscape:pageshadow="2"
     inkscape:zoom="0.35"
     inkscape:cx="1714.1709"
     inkscape:cy="601.07144"
     inkscape:document-units="px"
     inkscape:current-layer="layer1"
     showgrid="false"
     fit-margin-top="0"
     fit-margin-left="0"
     fit-margin-right="0"
     fit-margin-bottom="0"
     inkscape:window-width="1920"
     inkscape:window-height="1018"
     inkscape:window-x="-8"
     inkscape:window-y="-8"
     inkscape:window-maximized="1" />
  <metadata
     id="metadata7">
    <rdf:RDF>
      <cc:Work
         rdf:about="">
        <dc:format>image/svg+xml</dc:format>
        <dc:type
           rdf:resource="http://purl.org/dc/dcmitype/StillImage" />
        <dc:title></dc:title>
      </cc:Work>
    </rdf:RDF>
  </metadata>
  <g
     inkscape:label="レイヤー 1"
     inkscape:groupmode="layer"
     id="layer1"
     transform="translate(464.92856,-448.43362)">
    <g
       id="layer1-3"
       transform="matrix(4.8988906,0,0,4.8988906,-1153.878,-1647.177)">
      <g
         id="layer3">
        <g
           id="g3876">
          <path
             style="fill:#ec0b7b;fill-opacity:1;stroke:#ff00ff;stroke-width:0;stroke-linecap:butt;stroke-linejoin:miter;stroke-miterlimit:0;stroke-opacity:1;stroke-dasharray:none"
             id="path3044"
             d="m 504.26279,434.91739 -14.2684,43.56282 21.2132,12.37437 -23.61232,41.03745 45.58314,-46.84582 -21.08694,-11.74303 16.28871,-38.13326 z"
             inkscape:connector-curvature="0" />
          <path
             style="fill:#009fe2;fill-opacity:1;stroke:#00ffff;stroke-width:0;stroke-linecap:butt;stroke-linejoin:miter;stroke-miterlimit:4;stroke-opacity:1;stroke-dasharray:none"
             id="path3044-6"
             d="m 510.51311,432.0132 -14.2684,43.56283 21.2132,12.37437 -23.61232,41.03744 45.58314,-46.84582 -21.08694,-11.74302 16.28871,-38.13326 z"
             inkscape:connector-curvature="0" />
          <path
             style="fill:#181a82;fill-opacity:1;stroke:#0000ff;stroke-width:0;stroke-linecap:butt;stroke-linejoin:miter;stroke-miterlimit:4;stroke-opacity:1;stroke-dasharray:none"
             id="path3044-8"
             d="m 509.46843,434.98911 -13.28125,40.59375 21.21875,12.375 -18.65625,32.4375 34.375,-35.34375 -21.09375,-11.75 16.28125,-38.125 z"
             inkscape:connector-curvature="0" />
        </g>
      </g>
      <g
         id="text2992"
         style="font-size:72px;font-style:normal;font-variant:normal;font-weight:normal;font-stretch:normal;line-height:125%;letter-spacing:0px;word-spacing:0px;fill:#000000;fill-opacity:1;stroke:none;font-family:Anke;-inkscape-font-specification:Anke">
        <path
           id="path3051"
           d="m 145.19701,461.89722 6.47973,0 0,38.37524 -6.47973,0 z m 3.24096,-7.27295 c -1.1045,4e-5 -2.02881,-0.37203 -2.77295,-1.11621 -0.74414,-0.7441 -1.11621,-1.66768 -1.11621,-2.77076 0,-1.10444 0.37207,-2.02875 1.11621,-2.77294 0.74414,-0.74409 1.66845,-1.11616 2.77295,-1.11622 1.10449,6e-5 2.02844,0.37213 2.77185,1.11622 0.7434,0.74419 1.1151,1.6685 1.11512,2.77294 -2e-5,1.10308 -0.37172,2.02666 -1.11512,2.77076 -0.74341,0.74418 -1.66736,1.11625 -2.77185,1.11621 z"
           inkscape:connector-curvature="0" />
      </g>
      <g
         id="text2996"
         style="font-size:72px;font-style:normal;font-variant:normal;font-weight:normal;font-stretch:normal;line-height:125%;letter-spacing:0px;word-spacing:0px;fill:#000000;fill-opacity:1;stroke:none;font-family:Anke;-inkscape-font-specification:Anke">
        <path
           id="path3048"
           d="m 214.34358,466.5957 c 3.12006,3.11869 4.68012,6.86209 4.68018,11.23023 l 0,22.46484 -6.48194,0 0,-22.46484 c -5e-5,-1.2949 -0.252,-2.51841 -0.75586,-3.67053 -0.50395,-1.15208 -1.18767,-2.14817 -2.05114,-2.98829 -0.86358,-0.84005 -1.87139,-1.51205 -3.02344,-2.01599 -1.15215,-0.50387 -2.37639,-0.75582 -3.67273,-0.75586 -1.29643,4e-5 -2.52067,0.25199 -3.67273,0.75586 -1.15214,0.50394 -2.14786,1.17594 -2.98718,2.01599 -0.83939,0.84012 -1.51139,1.83621 -2.01599,2.98829 -0.50468,1.15212 -0.75699,2.37563 -0.75696,3.67053 l 0,22.46484 -6.47974,0 0,-22.46484 c -2e-5,-1.2949 -0.25198,-2.51841 -0.75586,-3.67053 -0.50393,-1.15208 -1.18764,-2.14817 -2.05114,-2.98829 -0.86355,-0.84005 -1.87136,-1.51205 -3.02344,-2.01599 -1.15212,-0.50387 -2.37636,-0.75582 -3.67273,-0.75586 -1.2964,4e-5 -2.52065,0.25199 -3.67273,0.75586 -1.15211,0.50394 -2.14821,1.17594 -2.98828,2.01599 -0.8401,0.84012 -1.5121,1.83621 -2.01599,2.98829 -0.50392,1.15212 -0.75587,2.37563 -0.75586,3.67053 l 0,22.46484 -6.47974,0 0,-38.37524 6.47974,0 0,3.09594 c 2.78465,-2.06392 5.92894,-3.0959 9.43286,-3.09594 2.15916,4e-5 4.19895,0.39591 6.11938,1.18762 1.92039,0.79178 3.6489,1.95597 5.18555,3.49255 0.52731,0.52738 1.00705,1.07889 1.43921,1.65454 0.4321,-0.57565 0.91183,-1.12716 1.43921,-1.65454 3.12008,-3.12008 6.86422,-4.68013 11.23242,-4.68017 2.1606,4e-5 4.20076,0.39591 6.12048,1.18762 1.91963,0.79178 3.64778,1.95597 5.18445,3.49255 z"
           inkscape:connector-curvature="0" />
      </g>
      <g
         id="text3000"
         style="font-size:72px;font-style:normal;font-variant:normal;font-weight:normal;font-stretch:normal;line-height:125%;letter-spacing:0px;word-spacing:0px;fill:#000000;fill-opacity:1;stroke:none;font-family:Anke;-inkscape-font-specification:Anke">
        <path
           id="path3045"
           d="m 264.19487,462.00482 0,38.37525 -6.48193,0 0,-4.823 c -1.77543,1.53516 -3.74308,2.72278 -5.90296,3.56286 -2.15994,0.84009 -4.44033,1.26014 -6.84118,1.26014 -2.59133,0 -5.03908,-0.48011 -7.34327,-1.44031 -2.30421,-0.9602 -4.36817,-2.35217 -6.19189,-4.17591 -1.82374,-1.82372 -3.2157,-3.89977 -4.1759,-6.22814 -0.96021,-2.32836 -1.44031,-4.7882 -1.44031,-7.37952 0,-2.59275 0.4801,-5.04087 1.44031,-7.34436 0.9602,-2.30344 2.35216,-4.36704 4.1759,-6.1908 1.82372,-1.82516 3.88768,-3.21749 6.19189,-4.177 2.30419,-0.95943 4.75194,-1.43917 7.34327,-1.43921 2.40085,4e-5 4.68124,0.42008 6.84118,1.26013 2.15988,0.84013 4.12753,2.02775 5.90296,3.56287 l 0,-4.823 z m -19.22607,31.89551 c 1.77683,1e-5 3.4332,-0.33618 4.96911,-1.00855 1.53586,-0.67235 2.87986,-1.58421 4.03198,-2.73559 1.15207,-1.15136 2.06394,-2.49535 2.7356,-4.03198 0.6716,-1.53661 1.00741,-3.19261 1.00745,-4.96802 -4e-5,-1.7285 -0.33585,-3.3607 -1.00745,-4.89661 -0.67166,-1.53586 -1.58353,-2.87985 -2.7356,-4.03198 -1.15212,-1.15207 -2.49612,-2.06393 -4.03198,-2.7356 -1.53591,-0.67159 -3.19228,-1.00741 -4.96911,-1.00744 -1.72707,3e-5 -3.35854,0.33585 -4.89441,1.00744 -1.53591,0.67167 -2.8799,1.58353 -4.03199,2.7356 -1.15211,1.15213 -2.06434,2.49612 -2.73669,4.03198 -0.67237,1.53591 -1.00855,3.16811 -1.00855,4.89661 0,1.77541 0.33618,3.43141 1.00855,4.96802 0.67235,1.53663 1.58458,2.88062 2.73669,4.03198 1.15209,1.15138 2.49608,2.06324 4.03199,2.73559 1.53587,0.67237 3.16734,1.00856 4.89441,1.00855 z"
           inkscape:connector-curvature="0" />
      </g>
      <g
         id="text3004"
         style="font-size:72px;font-style:normal;font-variant:normal;font-weight:normal;font-stretch:normal;line-height:125%;letter-spacing:0px;word-spacing:0px;fill:#000000;fill-opacity:1;stroke:none;font-family:Anke;-inkscape-font-specification:Anke">
        <path
           id="path3041"
           d="m 309.55869,461.82324 0,34.84644 c -5e-5,2.59277 -0.47978,5.05297 -1.43921,7.38061 -0.95951,2.32763 -2.35185,4.40405 -4.17701,6.22925 -1.82376,1.82372 -3.89944,3.21532 -6.22705,4.17481 -2.32766,0.95945 -4.78786,1.43919 -7.38061,1.4392 -1.53518,-10e-6 -3.04689,-0.17982 -4.53516,-0.53942 -1.48829,-0.35964 -2.92823,-0.8998 -4.31982,-1.62049 -2.63966,-1.39161 -4.84791,-3.31129 -6.62476,-5.75903 l 5.18555,-3.81665 c 1.24657,1.58495 2.73412,2.85717 4.46265,3.81665 1.82371,0.95946 3.76755,1.4392 5.83154,1.43921 1.77683,-10e-6 3.4332,-0.33583 4.96911,-1.00745 1.53587,-0.67164 2.87986,-1.5835 4.03199,-2.73559 1.15207,-1.15211 2.06393,-2.4961 2.73559,-4.03199 0.6716,-1.53588 1.00741,-3.19226 1.00745,-4.96911 l 0,-1.29419 c -1.77542,1.53516 -3.74307,2.72278 -5.90296,3.56286 -2.15993,0.84009 -4.44033,1.26014 -6.84118,1.26014 -2.59133,0 -5.03908,-0.48011 -7.34326,-1.44031 -2.30421,-0.9602 -4.36818,-2.35217 -6.1919,-4.1759 -1.82373,-1.82373 -3.2157,-3.89978 -4.1759,-6.22815 -0.96021,-2.32836 -1.44031,-4.7882 -1.44031,-7.37952 0,-2.59275 0.4801,-5.04087 1.44031,-7.34436 0.9602,-2.30344 2.35217,-4.36704 4.1759,-6.1908 1.82372,-1.82516 3.88769,-3.21749 6.1919,-4.177 2.30418,-0.95943 4.75193,-1.43917 7.34326,-1.43921 2.40085,4e-5 4.68125,0.42008 6.84118,1.26013 2.15989,0.84013 4.12754,2.02775 5.90296,3.56287 l 0,-4.823 z m -19.22388,31.89551 c 1.77683,10e-6 3.4332,-0.33617 4.96911,-1.00854 1.53587,-0.67236 2.87986,-1.58422 4.03199,-2.7356 1.15207,-1.15136 2.06393,-2.49535 2.73559,-4.03198 0.6716,-1.53661 1.00741,-3.16844 1.00745,-4.89551 l 0,-0.0725 c -4e-5,-1.7285 -0.33585,-3.3607 -1.00745,-4.89661 -0.67166,-1.53586 -1.58352,-2.87985 -2.73559,-4.03198 -1.15213,-1.15207 -2.49612,-2.06393 -4.03199,-2.7356 -1.53591,-0.67159 -3.19228,-1.00741 -4.96911,-1.00744 -1.72707,3e-5 -3.35854,0.33585 -4.89441,1.00744 -1.5359,0.67167 -2.8799,1.58353 -4.03198,2.7356 -1.15211,1.15213 -2.06434,2.49612 -2.7367,4.03198 -0.67237,1.53591 -1.00855,3.16811 -1.00854,4.89661 -1e-5,1.77541 0.33617,3.43141 1.00854,4.96802 0.67236,1.53663 1.58459,2.88062 2.7367,4.03198 1.15208,1.15138 2.49608,2.06324 4.03198,2.7356 1.53587,0.67237 3.16734,1.00855 4.89441,1.00854 z"
           inkscape:connector-curvature="0" />
      </g>
      <g
         id="text3008"
         style="font-size:72px;font-style:normal;font-variant:normal;font-weight:normal;font-stretch:normal;line-height:125%;letter-spacing:0px;word-spacing:0px;fill:#000000;fill-opacity:1;stroke:none;font-family:Anke;-inkscape-font-specification:Anke">
        <path
           id="path3038"
           d="m 319.2959,462.01266 6.47973,0 0,38.37525 -6.47973,0 z m 3.24097,-7.27294 c -1.1045,4e-5 -2.02882,-0.37203 -2.77295,-1.11622 -0.74415,-0.74409 -1.11622,-1.66767 -1.11621,-2.77075 -1e-5,-1.10444 0.37206,-2.02875 1.11621,-2.77295 0.74413,-0.74408 1.66845,-1.11615 2.77295,-1.11621 1.10448,6e-5 2.02843,0.37213 2.77185,1.11621 0.74339,0.7442 1.1151,1.66851 1.11511,2.77295 -1e-5,1.10308 -0.37172,2.02666 -1.11511,2.77075 -0.74342,0.74419 -1.66737,1.11626 -2.77185,1.11622 z"
           inkscape:connector-curvature="0" />
      </g>
      <g
         id="text3012"
         style="font-size:72px;font-style:normal;font-variant:normal;font-weight:normal;font-stretch:normal;line-height:125%;letter-spacing:0px;word-spacing:0px;fill:#000000;fill-opacity:1;stroke:none;font-family:Anke;-inkscape-font-specification:Anke">
        <path
           id="path3035"
           d="m 361.7674,466.6297 c 1.53658,1.53519 2.70077,3.25088 3.49255,5.14709 0.79171,1.89627 1.18759,3.92398 1.18762,6.08313 l 0,22.46485 -6.47974,0 0,-22.46485 c -2e-5,-1.29489 -0.25198,-2.5184 -0.75585,-3.67053 -0.50394,-1.15207 -1.18802,-2.14816 -2.05225,-2.98828 -0.86428,-0.84006 -1.87246,-1.51205 -3.02454,-2.01599 -1.15212,-0.50387 -2.37563,-0.75583 -3.67053,-0.75586 -1.2964,3e-5 -2.52065,0.25199 -3.67273,0.75586 -1.15211,0.50394 -2.1482,1.17593 -2.98828,2.01599 -0.8401,0.84012 -1.5121,1.83621 -2.01599,2.98828 -0.50392,1.15213 -0.75587,2.37564 -0.75586,3.67053 l 0,22.46485 -6.47974,0 0,-38.37525 6.47974,0 0,3.09595 c 2.78466,-2.06393 5.92894,-3.09591 9.43286,-3.09595 2.15916,4e-5 4.19895,0.39592 6.11939,1.18763 1.92038,0.79178 3.64816,1.95596 5.18335,3.49255 z"
           inkscape:connector-curvature="0" />
      </g>
      <g
         id="text3016"
         style="font-size:72px;font-style:normal;font-variant:normal;font-weight:normal;font-stretch:normal;line-height:125%;letter-spacing:0px;word-spacing:0px;fill:#000000;fill-opacity:1;stroke:none;font-family:Anke;-inkscape-font-specification:Anke">
        <path
           id="path3032"
           d="m 411.24844,462.00482 0,38.37525 -6.48193,0 0,-4.823 c -1.77542,1.53516 -3.74307,2.72278 -5.90295,3.56286 -2.15994,0.84009 -4.44034,1.26014 -6.84119,1.26014 -2.59133,0 -5.03908,-0.48011 -7.34326,-1.44031 -2.30421,-0.9602 -4.36818,-2.35217 -6.1919,-4.17591 -1.82373,-1.82372 -3.2157,-3.89977 -4.1759,-6.22814 -0.96021,-2.32836 -1.44031,-4.7882 -1.44031,-7.37952 0,-2.59275 0.4801,-5.04087 1.44031,-7.34436 0.9602,-2.30344 2.35217,-4.36704 4.1759,-6.1908 1.82372,-1.82516 3.88769,-3.21749 6.1919,-4.177 2.30418,-0.95943 4.75193,-1.43917 7.34326,-1.43921 2.40085,4e-5 4.68125,0.42008 6.84119,1.26013 2.15988,0.84013 4.12753,2.02775 5.90295,3.56287 l 0,-4.823 z m -19.22607,31.89551 c 1.77683,1e-5 3.4332,-0.33618 4.96912,-1.00855 1.53586,-0.67235 2.87985,-1.58421 4.03198,-2.73559 1.15207,-1.15136 2.06393,-2.49535 2.73559,-4.03198 0.6716,-1.53661 1.00742,-3.19261 1.00745,-4.96802 -3e-5,-1.7285 -0.33585,-3.3607 -1.00745,-4.89661 -0.67166,-1.53586 -1.58352,-2.87985 -2.73559,-4.03198 -1.15213,-1.15207 -2.49612,-2.06393 -4.03198,-2.7356 -1.53592,-0.67159 -3.19229,-1.00741 -4.96912,-1.00744 -1.72707,3e-5 -3.35854,0.33585 -4.89441,1.00744 -1.5359,0.67167 -2.8799,1.58353 -4.03198,2.7356 -1.15211,1.15213 -2.06434,2.49612 -2.7367,4.03198 -0.67237,1.53591 -1.00855,3.16811 -1.00854,4.89661 -10e-6,1.77541 0.33617,3.43141 1.00854,4.96802 0.67236,1.53663 1.58459,2.88062 2.7367,4.03198 1.15208,1.15138 2.49608,2.06324 4.03198,2.73559 1.53587,0.67237 3.16734,1.00856 4.89441,1.00855 z"
           inkscape:connector-curvature="0" />
      </g>
      <g
         id="text3020"
         style="font-size:72px;font-style:normal;font-variant:normal;font-weight:normal;font-stretch:normal;line-height:125%;letter-spacing:0px;word-spacing:0px;fill:#000000;fill-opacity:1;stroke:none;font-family:Anke;-inkscape-font-specification:Anke">
        <path
           id="path3029"
           d="m 437.88803,462.00482 c 3.02341,-0.14498 5.92746,0.40653 8.71216,1.65454 l -2.59277,5.90406 c -1.82376,-0.81589 -3.74344,-1.17551 -5.75904,-1.07886 -2.11232,0.14358 -4.0569,0.71927 -5.83374,1.72705 -2.01564,1.19973 -3.55152,2.75979 -4.60766,4.68017 -1.10304,1.96878 -1.65455,4.03274 -1.65454,6.1919 l 0,19.29639 -6.48194,0 0,-38.37525 6.48194,0 0,4.823 c 0.91112,-0.86422 1.91893,-1.58419 3.02343,-2.15991 2.73632,-1.6318 5.64036,-2.5195 8.71216,-2.66309 z"
           inkscape:connector-curvature="0" />
      </g>
      <g
         id="text3024"
         style="font-size:72px;font-style:normal;font-variant:normal;font-weight:normal;font-stretch:normal;line-height:125%;letter-spacing:0px;word-spacing:0px;fill:#000000;fill-opacity:1;stroke:none;font-family:Anke;-inkscape-font-specification:Anke">
        <path
           id="path3026"
           d="m 457.65164,516.05981 6.1919,-15.69506 -15.04908,-38.37525 6.98511,0 11.52027,29.52027 11.51806,-29.52027 6.98511,0 -21.16846,54.07031 -6.98291,0 z"
           inkscape:connector-curvature="0" />
      </g>
      <g
         id="text3028"
         style="font-size:72px;font-style:normal;font-variant:normal;font-weight:normal;font-stretch:normal;line-height:125%;letter-spacing:0px;word-spacing:0px;fill:#000000;fill-opacity:1;stroke:none;font-family:Anke;-inkscape-font-specification:Anke">
        <path
           id="path3023"
           d="m 572.77069,466.6297 c 1.53512,1.53519 2.69894,3.25088 3.49146,5.14709 0.79244,1.89627 1.18868,3.92398 1.18872,6.08313 l 0,22.46485 -6.47974,0 0,-22.46485 c -3e-5,-1.29489 -0.25235,-2.5184 -0.75696,-3.67053 -0.50466,-1.15207 -1.18875,-2.14816 -2.05224,-2.98828 -0.86355,-0.84006 -1.87137,-1.51205 -3.02344,-2.01599 -1.15212,-0.50387 -2.37636,-0.75583 -3.67273,-0.75586 -1.29641,3e-5 -2.52028,0.25199 -3.67163,0.75586 -1.15138,0.50394 -2.14711,1.17593 -2.98718,2.01599 -0.8401,0.84012 -1.5121,1.83621 -2.016,2.98828 -0.50391,1.15213 -0.75586,2.37564 -0.75585,3.67053 l 0,22.46485 -6.48194,0 0,-56.30493 6.48194,0 0,21.02563 c 2.78319,-2.06393 5.92674,-3.09591 9.43066,-3.09595 2.16062,4e-5 4.20078,0.39592 6.12048,1.18763 1.91965,0.79178 3.6478,1.95596 5.18445,3.49255 z"
           inkscape:connector-curvature="0" />
      </g>
      <g
         id="text3032"
         style="font-size:72px;font-style:normal;font-variant:normal;font-weight:normal;font-stretch:normal;line-height:125%;letter-spacing:0px;word-spacing:0px;fill:#000000;fill-opacity:1;stroke:none;font-family:Anke;-inkscape-font-specification:Anke">
        <path
           id="path3020"
           d="m 602.99548,500.32477 c -2.59132,0 -5.03908,-0.4801 -7.34326,-1.44031 -2.30421,-0.9602 -4.36817,-2.35217 -6.19189,-4.1759 -1.82374,-1.82373 -3.21571,-3.89977 -4.17591,-6.22815 -0.9602,-2.32836 -1.44031,-4.78819 -1.4403,-7.37952 -10e-6,-2.59275 0.4801,-5.04087 1.4403,-7.34436 0.9602,-2.30344 2.35217,-4.36703 4.17591,-6.1908 1.82372,-1.82516 3.88768,-3.21749 6.19189,-4.177 2.30418,-0.95943 4.75194,-1.43917 7.34326,-1.43921 2.59275,4e-5 5.05296,0.47978 7.38062,1.43921 2.3276,0.95951 4.40402,2.35184 6.22925,4.177 1.82369,1.82377 3.21566,3.88736 4.1759,6.1908 0.96017,2.30349 1.44027,4.75161 1.44031,7.34436 -4e-5,2.59133 -0.48014,5.05116 -1.44031,7.37952 -0.96024,2.32838 -2.35221,4.40442 -4.1759,6.22815 -1.82523,1.82373 -3.90165,3.2157 -6.22925,4.1759 -2.32766,0.96021 -4.78787,1.44031 -7.38062,1.44031 z m 0,-31.89551 c -1.72707,3e-5 -3.35853,0.33585 -4.89441,1.00745 -1.5359,0.67166 -2.87989,1.58352 -4.03198,2.73559 -1.15211,1.15213 -2.06434,2.49612 -2.73669,4.03198 -0.67237,1.53592 -1.00856,3.16812 -1.00855,4.89661 -10e-6,1.77541 0.33618,3.43141 1.00855,4.96802 0.67235,1.53663 1.58458,2.88063 2.73669,4.03198 1.15209,1.15138 2.49608,2.06324 4.03198,2.7356 1.53588,0.67237 3.16734,1.00855 4.89441,1.00854 1.77684,10e-6 3.43321,-0.33617 4.96912,-1.00854 1.53586,-0.67236 2.87985,-1.58422 4.03198,-2.7356 1.15207,-1.15135 2.06393,-2.49535 2.7356,-4.03198 0.6716,-1.53661 1.00741,-3.19261 1.00744,-4.96802 -3e-5,-1.72849 -0.33584,-3.36069 -1.00744,-4.89661 -0.67167,-1.53586 -1.58353,-2.87985 -2.7356,-4.03198 -1.15213,-1.15207 -2.49612,-2.06393 -4.03198,-2.73559 -1.53591,-0.6716 -3.19228,-1.00742 -4.96912,-1.00745 z"
           inkscape:connector-curvature="0" />
      </g>
      <g
         id="text3036"
         style="font-size:72px;font-style:normal;font-variant:normal;font-weight:normal;font-stretch:normal;line-height:125%;letter-spacing:0px;word-spacing:0px;fill:#000000;fill-opacity:1;stroke:none;font-family:Anke;-inkscape-font-specification:Anke">
        <path
           id="path3017"
           d="m 646.99695,461.99454 c 3.02341,-0.14498 5.92746,0.40653 8.71216,1.65454 l -2.59278,5.90405 c -1.82375,-0.81589 -3.74343,-1.1755 -5.75903,-1.07886 -2.11232,0.14359 -4.0569,0.71927 -5.83374,1.72705 -2.01564,1.19974 -3.55153,2.7598 -4.60767,4.68018 -1.10303,1.96877 -1.65455,4.03274 -1.65454,6.19189 l 0,19.29639 -6.48193,0 0,-38.37524 6.48193,0 0,4.823 c 0.91112,-0.86423 1.91894,-1.5842 3.02344,-2.15992 2.73631,-1.6318 5.64036,-2.51949 8.71216,-2.66308 z"
           inkscape:connector-curvature="0" />
      </g>
      <g
         id="text3040"
         style="font-size:72px;font-style:normal;font-variant:normal;font-weight:normal;font-stretch:normal;line-height:125%;letter-spacing:0px;word-spacing:0px;fill:#000000;fill-opacity:1;stroke:none;font-family:Anke;-inkscape-font-specification:Anke">
        <path
           id="path3014"
           d="m 679.93524,462.01584 0,6.47973 -8.71216,0 0,31.89551 -6.47973,0 0,-31.89551 -4.75269,0 0,-6.47973 4.75269,0 0,-17.92969 6.47973,0 0,17.92969 8.71216,0 z"
           inkscape:connector-curvature="0" />
      </g>
    </g>
    <path
       style="fill:#000000"
       d="m 259.07144,1071.6479 0,-35 5.5,0 5.5,0 0,35 0,35 -5.5,0 -5.5,0 z m 240.25,33.4156 c -1.7875,-0.7818 -3.25,-1.9987 -3.25,-2.7044 0,-1.0654 42.08701,-99.4249 43.56868,-101.8223 0.57681,-0.93332 8.93132,2.667 8.93132,3.8489 0,2.2338 -43.95211,102.2513 -44.90269,102.1806 -0.60352,-0.045 -2.55981,-0.7211 -4.34731,-1.5028 z m 615.99996,-0.1486 c -1.7875,-0.8964 -3.25,-1.9167 -3.25,-2.2673 0,-0.3505 9.4953,-22.6564 21.1006,-49.5685 11.6054,-26.9122 21.4897,-49.9319 21.9653,-51.155 l 0.8646,-2.22369 4.2849,1.84779 c 3.071,1.3244 4.2247,2.3792 4.0727,3.7238 -0.4316,3.8195 -43.0895,100.8809 -44.4215,101.0743 -0.7516,0.1091 -2.8291,-0.535 -4.6166,-1.4314 z m 757.3494,-53.7552 c -8.6739,-21.6983 -16.0157,-40.388 -16.315,-41.5327 -0.5143,-1.9665 -0.1992,-2.0647 5.7113,-1.7802 l 6.2556,0.3011 9.9108,25.4531 c 5.451,13.9992 10.0434,25.5856 10.2053,25.7475 0.1619,0.162 4.9709,-12.0561 10.6866,-27.1513 5.7157,-15.0951 10.6918,-26.9608 11.058,-26.3682 0.3663,0.5926 4.8784,12.7188 10.027,26.9471 5.1486,14.2283 9.6317,25.8701 9.9625,25.8707 0.3308,6e-4 5.3016,-11.3614 11.0463,-25.2489 l 10.4448,-25.25 6.2037,-0.2977 c 3.4121,-0.1638 6.2038,0.01 6.2038,0.3861 0,0.9551 -34.2822,82.4692 -34.5547,82.1618 -0.1219,-0.1376 -4.3354,-11.6766 -9.3633,-25.6422 -5.0279,-13.9657 -9.5479,-26.1157 -10.0445,-27 -0.7841,-1.3963 -0.9746,-1.4105 -1.447,-0.108 -2.319,6.3949 -19.8224,52.5498 -19.9974,52.7316 -0.1227,0.1274 -7.3199,-17.5215 -15.9938,-39.2198 z m -1089.09936,-1.6142 c -8.8,-22.044 -16.15,-40.489 -16.3333,-40.9888 -0.1834,-0.4998 2.541,-0.9088 6.0541,-0.9088 l 6.3874,0 9.8625,25.5 c 5.4244,14.025 10.1348,25.5 10.4677,25.5 0.3328,0 5.0561,-11.8125 10.4961,-26.25 5.4401,-14.4375 10.1576,-26.5673 10.4833,-26.9551 0.3258,-0.3877 4.6118,10.4123 9.5245,24 4.9127,13.5878 9.4555,25.986 10.0952,27.5516 1.1037,2.7014 1.713,1.517 11.9608,-23.25 l 10.7978,-26.0965 6.3654,0 6.3653,0 -1.5633,3.75 c -17.9347,43.0189 -32.9789,78.2476 -33.4114,78.2389 -0.3037,-0.01 -4.8271,-11.9261 -10.0521,-26.4889 -5.225,-14.5629 -9.725,-26.482 -10,-26.487 -0.275,-0.01 -4.9903,11.9151 -10.4784,26.489 -5.4882,14.5739 -10.2132,26.4929 -10.5,26.4868 -0.2869,-0.01 -7.7216,-18.0472 -16.5216,-40.0912 z m -1152,37.1673 c -13.27866,-3.2326 -20.44287,-16.1033 -17.58099,-31.5846 2.19068,-11.8505 9.64519,-18.6643 21.12916,-19.3132 7.76638,-0.4388 12.67579,0.8883 17.12013,4.628 4.4013,3.7034 7.80997,11.5279 7.82193,17.9549 l 0.01,5.25 -17.60841,0 -17.60841,0 0.65354,2.75 c 0.99254,4.1765 3.78467,7.5475 7.97549,9.629 5.13458,2.5503 10.28133,1.0426 14.79527,-4.334 l 3.26831,-3.8929 4.65044,2.6141 4.65044,2.6142 -2.46755,3.7287 c -3.38847,5.1203 -8.85784,8.6674 -15.22684,9.8753 -5.95343,1.129 -7.23867,1.138 -11.58228,0.081 z m 15.78731,-35.3127 c -2.54718,-4.3613 -5.8229,-5.9307 -11.25487,-5.3919 -3.41818,0.339 -5.12112,1.1745 -7.25,3.5572 -1.53034,1.7127 -2.78244,3.5569 -2.78244,4.0983 0,0.589 4.65456,0.9842 11.59205,0.9842 l 11.59205,0 z m 44.21269,35.597 c -5.0477,-1.1644 -7.94969,-2.9873 -10.6166,-6.6689 -1.58587,-2.1892 -2.8834,-4.3256 -2.8834,-4.7476 0,-0.422 2.08714,-1.5644 4.63808,-2.5386 4.54763,-1.7367 4.67032,-1.7315 6.2914,0.2705 2.43428,3.0062 5.84661,4.5396 8.35829,3.756 2.65826,-0.8293 3.67642,-2.2107 3.69692,-5.0156 0.02,-2.7386 -2.54093,-4.9615 -10.11668,-8.7811 -7.67598,-3.8702 -10.20134,-7.0779 -10.20134,-12.9579 0,-14.0856 17.33967,-20.0919 26.55006,-9.1968 2.5986,3.074 2.16832,4.2937 -2.32296,6.585 l -4.10623,2.0948 -2.20822,-2.0745 c -2.63985,-2.48 -4.86181,-2.644 -6.64889,-0.4907 -2.05122,2.4716 -0.16236,4.4223 9.16056,9.4605 6.71524,3.629 8.78287,5.3007 10.2651,8.2997 3.4279,6.9355 0.036,16.3592 -7.22521,20.0737 -3.07118,1.571 -9.75954,2.5938 -12.63088,1.9315 z m 56,-0.2426 c -12.17332,-3.1328 -19.56373,-14.6553 -18.13952,-28.2814 1.62766,-15.5726 10.57135,-23.5068 25.54394,-22.6608 5.80689,0.3282 7.74589,0.9132 11.30248,3.4103 5.7598,4.0439 8.90727,9.9785 9.55201,18.0106 l 0.51491,6.4147 -17.63691,0 c -19.56224,0 -19.22043,-0.1393 -16.05076,6.5403 4.14414,8.7331 14.81863,9.4742 21.64776,1.5029 l 3.26609,-3.8124 4.76252,2.7296 4.76252,2.7296 -4.13431,4.6968 c -2.27387,2.5832 -5.7717,5.5321 -7.77297,6.5531 -4.23765,2.1619 -13.30394,3.2769 -17.61776,2.1667 z m 16.5,-33.5508 c 0,-0.7944 -1.08604,-2.7069 -2.41342,-4.25 -2.11646,-2.4606 -3.11088,-2.8058 -8.08203,-2.8058 -5.13864,0 -5.94142,0.3053 -8.58658,3.2658 -1.60488,1.7961 -2.91797,3.7086 -2.91797,4.25 0,0.586 4.45088,0.9842 11,0.9842 8.92235,0 11,-0.2728 11,-1.4442 z m 48.24459,33.5042 c -1.79048,-0.4453 -4.83402,-1.8785 -6.76343,-3.1848 -13.06006,-8.8427 -14.26935,-31.9519 -2.22539,-42.5266 7.10622,-6.2394 18.00205,-7.0908 25.68404,-2.0071 l 4.06019,2.6869 0,-2.5142 c 0,-2.4062 0.25764,-2.5142 6,-2.5142 l 6,0 0,24.5 0,24.5 -6,0 c -5.37462,0 -6,-0.2129 -6,-2.0422 0,-1.99 -0.10841,-1.9793 -4.25,0.4217 -4.78538,2.7742 -11.64785,3.8887 -16.50541,2.6805 z m 15.85791,-12.133 c 5.13031,-3.6531 7.35278,-13.5758 4.52638,-20.2091 -2.19907,-5.161 -5.93983,-7.9471 -11.34625,-8.4507 -6.3186,-0.5885 -10.97315,2.4414 -13.64157,8.88 -5.96283,14.3877 8.45734,28.3275 20.46144,19.7798 z m 104.897497,12.1623 c -20.43374,-4.3099 -27.80785,-29.4593 -12.83763,-43.7827 7.21428,-6.9026 19.65769,-9.363 28.81739,-5.698 l 4.02024,1.6086 0,7.5077 0,7.5078 -3.97479,-3.591 c -4.55299,-4.1133 -7.60128,-5.1345 -12.80605,-4.2898 -4.69836,0.7624 -8.25926,3.3883 -10.46761,7.7192 -3.31818,6.5073 -1.47781,16.8981 3.62881,20.4883 6.34159,4.4584 13.86291,3.7999 20.20541,-1.7689 l 3.41423,-2.9977 0,7.1546 c 0,7.1308 -0.0109,7.1591 -3.25,8.4927 -4.30049,1.7705 -12.39584,2.5675 -16.75,1.6492 z m 271.713473,-0.469 c -17.53953,-4.8723 -24.38134,-26.3896 -13.09573,-41.1858 6.61013,-8.6663 20.56184,-11.994 31.16411,-7.433 5.65893,2.4344 11.59864,8.2716 13.81531,13.5768 1.85955,4.4505 1.7889,15.5619 -0.12811,20.15 -5.05271,12.0928 -18.73457,18.509 -31.75558,14.892 z m 15.58055,-11.2724 c 5.81993,-3.0096 8.45617,-14.3582 4.95442,-21.328 -2.75609,-5.4856 -7.71357,-8.281 -13.81816,-7.7917 -8.81027,0.7063 -13.43029,6.1148 -13.43029,15.7226 0,12.9324 10.72709,19.3786 22.29403,13.3971 z m 87.52653,11.3054 c -6.61375,-1.8491 -11.23672,-5.7607 -14.36481,-12.1542 -2.46073,-5.0296 -2.66183,-6.3054 -2.27367,-14.424 0.36848,-7.7072 0.8246,-9.5515 3.38731,-13.6966 4.09088,-6.6168 11.29689,-10.387 19.79481,-10.3565 13.43171,0.048 21.54746,7.8665 23.25608,22.4042 l 0.65509,5.5738 -17.76852,0 -17.76852,0 0.58809,3.624 c 1.06762,6.5789 7.59271,11.0446 14.29957,9.7864 3.32028,-0.6229 10.37402,-6.4882 10.37402,-8.6262 0,-0.5 2.25361,0.3175 5.00802,1.8167 l 5.00801,2.7257 -1.64036,2.5867 c -6.03798,9.5213 -17.49767,13.8315 -28.55512,10.74 z m 18.17945,-32.7533 c 0,-0.605 -1.53,-2.63 -3.4,-4.5 -2.62454,-2.6245 -4.2324,-3.4 -7.04966,-3.4 -4.84178,0 -9.16355,2.3513 -11.05909,6.0169 l -1.54261,2.9831 11.52568,0 c 7.71565,0 11.52568,-0.3636 11.52568,-1.1 z m 51,33.1893 c -8.00788,-1.6891 -14.68755,-6.8437 -18.73704,-14.4592 -2.51787,-4.7351 -2.26793,-16.9736 0.45193,-22.1301 2.7852,-5.2804 7.74258,-9.9155 13.28511,-12.4215 5.5651,-2.5162 15.31963,-2.7347 20.97976,-0.4699 l 4.02024,1.6086 0,7.5077 0,7.5078 -3.97479,-3.591 c -4.55299,-4.1133 -7.60128,-5.1345 -12.80605,-4.2898 -7.28958,1.1829 -12.21472,7.43 -12.21761,15.497 -0.005,14.3157 14.57683,20.6063 25.51158,11.0054 l 3.48687,-3.0615 0,7.1546 c 0,7.1308 -0.0109,7.1591 -3.25,8.4927 -4.30049,1.7705 -12.39584,2.5675 -16.75,1.6492 z m 85.5,0 c -1.65,-0.4101 -3.96396,-1.2635 -5.14214,-1.8966 -2.64351,-1.421 -7.35786,-6.9144 -7.35786,-8.5742 0,-0.6732 1.98865,-2.1901 4.41922,-3.371 l 4.41922,-2.147 1.63308,2.4924 c 3.11647,4.7563 9.38523,5.4078 11.63242,1.2089 1.87156,-3.4971 -0.40345,-6.4279 -7.93278,-10.2196 -8.78397,-4.4235 -12.17245,-8.2981 -12.16742,-13.9129 0.0125,-13.9141 18.25722,-20.0561 26.90796,-9.0584 1.14857,1.4601 2.0883,2.9324 2.0883,3.2717 0,0.3392 -2.0442,1.7013 -4.54266,3.0267 l -4.54267,2.4099 -1.55403,-2.2187 c -2.27143,-3.2429 -6.7511,-2.5541 -7.17296,1.103 -0.28523,2.4726 0.37517,3.0532 7.6122,6.6919 10.32529,5.1914 13.20135,8.5537 13.19638,15.4273 -0.004,6.1458 -2.31352,10.4846 -7.14324,13.4223 -3.92622,2.3882 -10.11054,3.398 -14.35302,2.3438 z m 447.3628,0.2548 c -5.1825,-0.9014 -13.1728,-6.6561 -16.3152,-11.7502 -2.4771,-4.0158 -3.0905,-6.2167 -3.391,-12.1666 -0.4515,-8.9416 0.8116,-12.9771 5.8555,-18.7072 5.6794,-6.4521 12.3807,-9.0898 21.592,-8.4986 15.3477,0.9849 25.5021,12.6392 24.1363,27.7014 -0.8744,9.6427 -6.8961,18.1516 -15.3439,21.6813 -3.6186,1.5119 -12.4819,2.4447 -16.5337,1.7399 z m 13.9349,-11.9759 c 6.0389,-3.8907 8.2383,-15.1066 4.375,-22.3101 -3.3393,-6.2265 -11.3547,-8.6837 -18.5369,-5.6828 -12.1935,5.0948 -10.9543,25.7522 1.7741,29.5749 3.7535,1.1273 9.2776,0.4218 12.3878,-1.582 z m 154.47726,11.6788 c -4.5122,-1.1021 -8.0393,-3.6161 -10.319,-7.3549 -1.0717,-1.7576 -1.9502,-3.4959 -1.9523,-3.8629 0,-0.367 2.0244,-1.4419 4.5033,-2.3885 l 4.5069,-1.7213 2.3369,2.5216 c 3.2539,3.5111 6.23,4.2602 9.1982,2.3154 2.9806,-1.953 3.1983,-5.5736 0.4829,-8.0311 -1.0824,-0.9796 -4.7562,-3.1868 -8.1639,-4.9049 -7.9053,-3.9859 -10.3902,-7.2533 -10.2983,-13.5415 0.1265,-8.649 6.0597,-14.0824 15.3778,-14.0824 4.3941,0 5.5644,0.4677 9.0496,3.6163 2.2016,1.989 4.0029,4.2299 4.0029,4.9797 0,0.7498 -1.8478,2.306 -4.1062,3.4582 l -4.1063,2.0948 -2.2082,-2.0745 c -2.6398,-2.48 -4.8618,-2.644 -6.6489,-0.4907 -2.0506,2.4709 -0.1636,4.421 9.1606,9.4663 9.9396,5.3784 12.3612,8.7294 11.4606,15.859 -1.2731,10.0784 -11.7311,16.7173 -22.2766,14.1414 z m 133.8455,-0.1679 c -11.6842,-1.9623 -23.6174,-11.3078 -28.9403,-22.6646 -2.3989,-5.1181 -2.6801,-6.8747 -2.6801,-16.7417 0,-10.4053 0.1814,-11.3921 3.2336,-17.5895 3.9475,-8.0152 11.9954,-15.9332 20.0138,-19.6909 5.1053,-2.3926 6.934,-2.6955 16.2526,-2.6923 8.897,0 11.3015,0.3654 15.75,2.3732 l 5.25,2.3695 0,6.8548 0,6.8548 -4.7155,-2.9904 c -20.2204,-12.8235 -44.6699,0.6052 -44.6699,24.5345 0,16.8684 12.1033,28.9798 28.8854,28.9046 7.3043,-0.033 10.8571,-1.2874 17.2955,-6.1083 l 3.2956,-2.4676 -0.2956,7.3336 -0.2955,7.3336 -5.5,2.1339 c -6.6691,2.5875 -15.632,3.47 -22.8796,2.2528 z m 69.3796,0.4835 c -9.0704,-2.2514 -15.0832,-6.6686 -18.6833,-13.7255 -2.5357,-4.9703 -3.4027,-13.7966 -1.9007,-19.3486 1.6589,-6.1318 6.8012,-12.2785 12.9665,-15.4993 4.3086,-2.2509 6.6334,-2.7885 11.9817,-2.7708 15.5662,0.052 26.133,10.5674 26.1041,25.9781 -0.026,13.9618 -9.2709,23.9539 -23.4683,25.3654 -2.75,0.2734 -5.9,0.2737 -7,7e-4 z m 12.6145,-12.0934 c 6.0563,-3.5762 8.4058,-13.0475 5.0939,-20.5346 -2.3971,-5.4189 -5.6635,-7.8097 -11.5813,-8.4767 -10.7824,-1.2153 -18.0396,8.0539 -15.5166,19.8184 2.1575,10.06 12.9204,14.5566 22.004,9.1929 z m 234.6387,11.6849 c -5.9871,-1.4781 -11.2251,-5.5798 -14.3678,-11.2509 -2.5942,-4.6812 -2.8813,-6.1151 -2.8452,-14.2067 0.044,-9.9245 1.7267,-14.5799 7.1182,-19.697 8.9565,-8.5006 27.5556,-7.3331 34.3108,2.1537 2.8056,3.9401 5.0308,11.1066 5.0308,16.2022 l 0,3.8411 -17.5,0 c -19.4107,0 -19.0816,-0.1353 -15.9138,6.5403 4.2025,8.8561 15.5001,9.4574 21.8275,1.1616 l 2.6774,-3.5102 4.4545,2.4896 c 2.4499,1.3693 4.4544,2.8999 4.4544,3.4013 0,1.7303 -7.3737,9.0674 -10.9422,10.8879 -4.422,2.2559 -13.3083,3.2206 -18.3046,1.9871 z m 17.2246,-33.2076 c -0.012,-0.6875 -0.7998,-2.2099 -1.75,-3.383 -4.3532,-5.374 -11.4035,-5.9077 -16.693,-1.2634 -5.9239,5.2012 -5.0437,5.8964 7.4652,5.8964 8.1452,0 10.9942,-0.3244 10.9778,-1.25 z m 96.8254,32.8803 c -7.0395,-1.9396 -12.3793,-5.9617 -15.7743,-11.8816 -2.6023,-4.5376 -3.0114,-6.256 -3.0195,-12.683 -0.011,-8.8065 2.2107,-14.2958 7.7577,-19.1661 6.1071,-5.3621 11.4288,-7.1708 19.6097,-6.665 3.9178,0.2423 8.3607,0.9524 9.8732,1.5782 2.6502,1.0964 2.75,1.4065 2.75,8.5473 l 0,7.4096 -3.6835,-3.374 c -7.9253,-7.2593 -19.1653,-5.3445 -23.4028,3.9868 -4.3437,9.5653 -0.062,20.1541 9.1533,22.6355 5.1462,1.3857 9.1983,0.3027 13.8887,-3.7121 l 4.0443,-3.4618 0,7.129 c 0,7.1018 -0.012,7.134 -3.25,8.467 -5.1241,2.1095 -12.7699,2.6166 -17.9468,1.1902 z m 90.6968,0.4561 c -8.1954,-2.0539 -14.5535,-8.2213 -17.0287,-16.5179 -5.2957,-17.7503 5.1081,-34.5685 21.3843,-34.5685 5.0138,0 12.1718,2.6172 13.6356,4.9857 1.1463,1.8548 2.5088,1.0479 2.5088,-1.4857 0,-2.3637 0.3,-2.5 5.5,-2.5 l 5.5,0 0,24.5 0,24.5 -5.5,0 c -4.8333,0 -5.5,-0.2424 -5.5,-2 0,-2.483 0.1534,-2.4951 -5.124,0.4032 -4.9814,2.7357 -10.9857,3.7835 -15.376,2.6832 z m 14.2977,-11.7389 c 3.9603,-2.5098 6.1945,-7.3263 6.1986,-13.3631 0,-6.8044 -2.4214,-11.6705 -7.058,-14.1572 -6.5996,-3.5394 -14.654,-1.2115 -18.111,5.2344 -2.2009,4.1038 -2.4261,12.8797 -0.4297,16.7404 3.8598,7.464 12.4832,9.929 19.4001,5.5455 z m 249.1411,11.3299 c -19.0175,-5.3052 -25.0337,-29.4286 -10.8713,-43.5911 4.5429,-4.5428 8.5074,-6.2825 15.618,-6.8533 8.6366,-0.6932 14.3823,1.1233 20.2557,6.404 5.9934,5.3886 8.2938,10.7634 8.3274,19.4575 0.04,10.3422 -4.9988,18.2518 -14.7696,23.1844 -4.3931,2.2177 -13.2354,2.884 -18.5602,1.3985 z m 15.4481,-11.5265 c 8.9457,-5.1157 8.7203,-20.8318 -0.3869,-26.9701 -2.8688,-1.9335 -4.4482,-2.2829 -8.7577,-1.937 -5.6384,0.4526 -9.1671,2.8244 -11.8373,7.9565 -2.8727,5.5212 -1.173,16.1023 3.207,19.9645 4.3712,3.8544 12.0174,4.2786 17.7749,0.9861 z m 156.1131,12.1978 c -5.0477,-1.1644 -7.9497,-2.9873 -10.6166,-6.6689 -1.5859,-2.1892 -2.8834,-4.3029 -2.8834,-4.697 0,-0.3942 2.1987,-1.6304 4.886,-2.7472 l 4.8861,-2.0305 1.2476,2.3312 c 2.9771,5.5627 11.9803,5.2944 11.9803,-0.3571 0,-3.529 -2.3361,-5.7412 -10.2917,-9.7459 -3.3502,-1.6863 -6.9426,-4.2064 -7.9831,-5.6001 -2.4776,-3.3184 -2.5069,-10.8163 -0.058,-14.9855 4.9835,-8.4864 18.8204,-9.1934 24.8171,-1.268 2.29,3.0265 1.8084,4.2301 -2.59,6.474 l -4.1063,2.0948 -2.3045,-2.165 c -2.5663,-2.4109 -5.2298,-2.3397 -6.8178,0.1822 -1.4825,2.3542 0.4654,4.369 7.775,8.0421 9.1261,4.5858 11.3956,6.5115 12.6641,10.7455 2.9179,9.7392 -3.6627,18.9012 -14.6043,20.3332 -2.2,0.2879 -4.9,0.3159 -6,0.062 z m -2621.50006,-40.4947 0,-39.1455 12.25,0.5908 c 6.7375,0.3249 13.87793,1.0701 15.86763,1.6559 9.85296,2.9011 15.38495,10.4914 15.33758,21.0443 -0.0445,9.9175 -4.46776,17.0182 -12.75917,20.4825 -2.49154,1.0411 -3.52486,1.9931 -3.03667,2.7978 0.40699,0.6708 5.28889,7.5197 10.84867,15.2197 5.55977,7.7 10.44648,14.5625 10.85934,15.25 0.57191,0.9523 -0.91299,1.25 -6.23598,1.25 l -6.98664,0 -11.14476,-16 c -6.12962,-8.8 -11.56219,-16 -12.07238,-16 -0.53151,0 -0.92762,6.8323 -0.92762,16 l 0,16 -6,0 -6,0 z m 25.01818,-4.4785 c 4.83856,-1.936 6.98182,-5.5216 6.98182,-11.6803 0,-7.3307 -6.03883,-11.6749 -16.25,-11.6901 l -3.75,-0.01 0,12.5 0,12.5 4.47976,0 c 2.46387,0 6.30616,-0.7308 8.53842,-1.624 z m 295.98182,19.124 0,-24.5 5.5,0 c 4.80529,0 5.5,0.2488 5.5,1.9699 0,1.8546 0.21935,1.82 3.75,-0.5917 3.15538,-2.1553 4.58805,-2.4938 9.03519,-2.1346 7.39377,0.5971 8.08992,1.6179 5.24516,7.6916 -2.027,4.3277 -2.5762,4.843 -4.22254,3.9619 -3.44492,-1.8436 -8.91183,-0.6621 -11.20847,2.4225 -1.89658,2.5472 -2.12998,4.4064 -2.41664,19.25 l -0.3173,16.4304 -5.4327,0 -5.4327,0 z m 103.999997,-18 0,-42.5 5.5,0 5.5,0 0,19.5 c 0,10.725 0.35485,19.5 0.78856,19.5 0.43371,0 2.55385,-0.9 4.71144,-2 8.9057201,-4.5404 20.6405901,-1.1044 23.88019,6.9922 1.2886,3.2205 1.61981,7.8269 1.61981,22.528 l 0,18.4798 -5.4368799,0 -5.43687,0 -0.31313,-18.0904 c -0.30509,-17.6267 -0.37363,-18.1394 -2.67389996,-20 -3.30671004,-2.6747 -9.33640004,-2.512 -12.60986014,0.3404 -3.28299,2.8607 -4.51565,9.9456 -4.52357,26 l -0.006,11.75 -5.5,0 -5.5,0 0,-42.5 z m 107.999996,3.3563 0,-39.1437 12.82666,0.5202 c 14.718777,0.597 19.723977,2.2134 24.817477,8.0146 4.20795,4.7927 5.65869,9.6559 5.16997,17.3309 -0.78629,12.3485 -8.89336,19.4398 -23.314107,20.3929 l -8,0.5288 -0.27539,15.75 -0.2754,15.75 -5.4746,0 -5.47461,0 z m 25.820917,-5.2637 c 4.23163,-2.1883 6.5417,-6.8524 5.87089,-11.8536 -0.93865,-6.9982 -6.64073,-10.7206 -16.441807,-10.7334 l -4.25,-0.01 0,12.6389 0,12.6389 5.83785,-0.5294 c 3.210817,-0.2912 7.253197,-1.2613 8.983067,-2.1558 z m 36.17908,19.9074 0,-24.5 5.5,0 c 4.91135,0 5.5,0.2236 5.5,2.0889 0,2.0102 0.11593,1.9913 3.07673,-0.5 3.41856,-2.8765 9.80517,-3.5111 14.37622,-1.4284 3.06845,1.3981 3.09258,2.1252 0.25056,7.5522 -1.72164,3.2876 -2.53525,4.0047 -3.70481,3.2653 -3.01729,-1.9074 -8.52417,-1.1119 -11.07439,1.5997 -2.3385,2.4866 -2.43549,3.1767 -2.74016,19.5 l -0.31585,16.9223 -5.43415,0 -5.43415,0 z m 275.00001,5.5 0,-19 -2.5,0 c -2.36364,0 -2.5,-0.3 -2.5,-5.5 0,-5.2 0.13636,-5.5 2.5,-5.5 2.48148,0 2.5,-0.067 2.5,-9 l 0,-9 5.5,0 5.5,0 0,9 0,9 4.5,0 4.5,0 0,5.5 0,5.5 -4.5,0 -4.5,0 0,19 0,19 -5.5,0 -5.5,0 z m 142,18.3105 c 0,-1.9234 37.5271,-81.1786 38.1324,-80.5334 0.3729,0.3976 8.6419,18.4979 18.3755,40.2229 9.7336,21.725 17.9161,39.859 18.1833,40.2977 0.2672,0.4387 -2.5166,0.6637 -6.1861,0.5 l -6.672,-0.2977 -3.8359,-9 -3.8359,-9 -16.2551,-0.2756 c -9.4435,-0.1601 -16.657,0.1264 -17.2144,0.6838 -0.5276,0.5276 -2.6482,4.7017 -4.7124,9.2756 l -3.7531,8.3162 -6.1131,0.2977 c -3.3623,0.1638 -6.1132,-0.055 -6.1132,-0.4872 z m 47.6662,-32.5605 c -3.938,-9.4062 -9.9997,-22.7493 -10.2291,-22.5166 -0.4647,0.4716 -11.4371,24.6787 -11.4371,25.2324 0,0.2938 5.181,0.5342 11.5134,0.5342 l 11.5134,0 z m 43.3338,8.75 0,-24.5 5.5,0 c 4.8053,0 5.5,0.2488 5.5,1.9699 0,1.8682 0.1878,1.8424 3.6395,-0.5 4.8883,-3.3173 13.1673,-3.2854 17.1777,0.066 0.1745,0.1458 -0.8503,2.5691 -2.2772,5.3851 -2.2608,4.4613 -2.8399,4.9887 -4.5015,4.0994 -2.7729,-1.484 -7.2657,-1.2501 -9.7771,0.5089 -3.2912,2.3052 -4.2497,7.5351 -4.2558,23.2205 l -0.006,14.25 -5.5,0 -5.5,0 0,-24.5 z m 47,5.5 0,-19 -2.5,0 c -2.3636,0 -2.5,-0.3 -2.5,-5.5 0,-5.2 0.1364,-5.5 2.5,-5.5 2.4815,0 2.5,-0.067 2.5,-9 l 0,-9 5.5,0 5.5,0 0,9 0,9 4.5,0 4.5,0 0,5.5 0,5.5 -4.5,0 -4.5,0 0,19 0,19 -5.5,0 -5.5,0 z m 266,-5.5 0,-24.5 5.5,0 c 4.9114,0 5.5,0.2236 5.5,2.0889 0,2.0102 0.1159,1.9913 3.0767,-0.5 3.4186,-2.8765 9.8052,-3.5111 14.3762,-1.4284 3.0685,1.3981 3.0926,2.1252 0.2506,7.5522 -1.7216,3.2876 -2.5352,4.0047 -3.7048,3.2653 -3.0173,-1.9074 -8.5242,-1.1119 -11.0744,1.5997 -2.3385,2.4866 -2.4355,3.1767 -2.7401,19.5 l -0.3159,16.9223 -5.4341,0 -5.4342,0 z m 45.99996,-18 0,-42.5 6,0 6,0 0,25.7265 0,25.7266 7.7721,-7.7266 7.7721,-7.7265 7.6501,0 7.6501,0 -10.6239,10.3823 -10.6239,10.3823 9.9517,12.3312 c 5.4734,6.7822 10.5397,13.1352 11.2584,14.1177 1.2229,1.6719 0.8379,1.7855 -6,1.7704 l -7.3067,-0.016 -7.8136,-10.0036 c -4.2974,-5.502 -8.2349,-9.7432 -8.75,-9.4249 -0.515,0.3183 -0.9364,4.8272 -0.9364,10.0198 l 0,9.4409 -6,0 -6,0 0,-42.5 z m 324.0001,18 0,-24.5 5.5,0 c 4.8658,0 5.5,0.2348 5.5,2.036 0,1.9588 0.1417,1.9398 3.7321,-0.5 2.5761,-1.7504 5.0746,-2.536 8.0658,-2.536 4.8771,0 7.4576,1.0837 11.4521,4.8093 1.5125,1.4107 2.75,2.0497 2.75,1.4199 0,-2.3429 8.4795,-6.2293 13.5879,-6.2277 6.9042,0 11.4326,2.5476 14.1621,7.9604 2.0952,4.1548 2.25,5.7547 2.25,23.25 l 0,18.7881 -5.419,0 -5.419,0 -0.331,-18.09 c -0.3223,-17.6157 -0.3929,-18.1401 -2.6918,-20 -2.8323,-2.2915 -6.906,-2.462 -9.8335,-0.4116 -3.0651,2.1469 -4.3057,9.3649 -4.3057,25.0508 l 0,13.4508 -5.5,0 -5.5,0 0,-16.0321 c 0,-18.0061 -1.022,-22.4334 -5.4341,-23.5407 -3.8289,-0.961 -7.3249,0.2758 -9.3033,3.2913 -1.4668,2.2358 -1.8187,5.5052 -2.0969,19.4841 l -0.3343,16.7974 -5.4157,0 -5.4157,0 z m 90,0 0,-24.5 5.4304,0 c 4.7052,0 5.4732,0.274 5.75,2.0512 0.3093,1.9851 0.4325,1.9664 3.8196,-0.5781 3.0429,-2.2858 4.2524,-2.5779 9.2611,-2.2365 4.8498,0.3305 6.285,0.9004 9.0729,3.6025 l 3.3117,3.2098 1.9248,-2.1268 c 4.9325,-5.4503 15.4,-6.743 21.5316,-2.6589 6.2358,4.1534 7.2033,7.7852 7.71,28.9433 l 0.4502,18.7935 -6.068,0 -6.0681,0 -0.3131,-17.8978 c -0.2788,-15.9353 -0.522,-18.1284 -2.2181,-20 -2.71,-2.9906 -7.6166,-2.7719 -10.6707,0.4756 -2.3453,2.4938 -2.4346,3.1457 -2.7388,20 l -0.3144,17.4222 -5.9356,0 -5.9355,0 0,-16.5497 c 0,-12.843 -0.34,-17.2072 -1.5182,-19.4855 -2.7783,-5.3726 -10.2291,-5.2032 -13.1811,0.2997 -1.3869,2.5852 -1.8132,6.5013 -2.121,19.4855 l -0.3852,16.25 -5.3973,0 -5.3972,0 z m 156,0 0,-24.5 5.5,0 c 4.8053,0 5.5,0.2488 5.5,1.9699 0,1.8682 0.1878,1.8424 3.6395,-0.5 3.9749,-2.6974 9.0138,-3.1839 14.2113,-1.3721 1.732,0.6038 3.1492,1.2938 3.1492,1.5333 0,0.2394 -1.1373,2.6797 -2.5273,5.4227 -2.1989,4.3394 -2.775,4.8548 -4.4342,3.9668 -2.7729,-1.484 -7.2657,-1.2502 -9.7771,0.5089 -3.2912,2.3052 -4.2497,7.5351 -4.2558,23.2205 l -0.01,14.25 -5.5,0 -5.5,0 0,-24.5 z m 104,0 0,-24.5 6,0 6,0 0,24.5 0,24.5 -6,0 -6,0 z m 105,-18 0,-42.5 5.5,0 5.5,0 0,42.5 0,42.5 -5.5,0 -5.5,0 z m 263,18 0,-24.5 5.5,0 c 4.8333,0 5.5,0.2424 5.5,2 0,2.5928 0.5908,2.5221 4.1824,-0.5 4.0244,-3.3863 12.5618,-3.3679 16.6348,0.036 0.1745,0.1458 -0.8733,2.6146 -2.3284,5.4861 -1.955,3.8579 -2.9385,4.9282 -3.7672,4.0994 -1.6618,-1.6618 -8.3385,-1.3617 -10.1567,0.4565 -3.3492,3.3491 -3.9205,6.1819 -4.3708,21.672 l -0.4578,15.75 -5.3682,0 -5.3681,0 0,-24.5 z m 47,-18 0,-42.5 6,0 6,0 0,25.7265 0,25.7266 7.7721,-7.7266 7.7721,-7.7265 7.4601,0 7.46,0 -10.3962,10.4317 -10.3963,10.4317 7.8499,9.8183 c 4.3174,5.4001 9.3954,11.7308 11.2845,14.0683 l 3.4347,4.25 -7.3762,0 -7.3762,0 -7.8067,-10.0204 c -4.2937,-5.5112 -8.2286,-9.7597 -8.7443,-9.441 -0.5156,0.3187 -0.9375,4.8279 -0.9375,10.0204 l 0,9.441 -6,0 -6,0 z M 259.41424,1021.0816 c -2.07786,-2.0779 -2.44562,-3.1697 -1.93222,-5.7366 0.79976,-3.9988 2.2877,-5.4868 6.28652,-6.2865 2.56693,-0.5134 3.65875,-0.1457 5.73661,1.9322 3.23903,3.239 3.28059,7.0338 0.11174,10.2026 -3.16884,3.1689 -6.96362,3.1273 -10.20265,-0.1117 z m 1424.83156,0.2518 c -3.0767,-3.2749 -2.872,-7.9916 0.4606,-10.6129 1.4491,-1.1399 3.4134,-2.0726 4.3651,-2.0726 3.3707,0 7,3.9059 7,7.5336 0,6.6292 -7.4065,9.8559 -11.8257,5.1519 z"
       id="path3096"
       inkscape:connector-curvature="0"
       sodipodi:nodetypes="cccccccccsssscssssccscssscscscscscscsscscccsscscssscscscccccscscscsssccccssscccssccssssscsssssssssssscssssssssssscssscccsssssssssssssscsscccsssssssssssscccssssscsssssssssssssssssssscccsssscsssssscssssssscccsssscsssccsscssssssscssscsccsscssssscssscsscccsccscsssscscsssssssscscccsssccccssscssscssssssssccssscsssccsssccsscsccsssscsssscscssssssscccssssscssssssssssssssssscsssccsscccccccsssccccsssscssscssscccccsccccsccccssssssssccccccccssssscccsssccccccccsssscccccccsccccsccccssssssssccccccssssccccccccccccccccscssscccscscssscsscsccssccccsccccccccssssccccccccccccccccccssscssssccccccccccccccccssscscscccccccsscssscsscccscsscccsscsccccccscssccssscccsssscccsccsccccccssccssssccccccccccccccccccccccccccssscccsscccccccccccccccccsscccscsccccssssssscsss" />
  </g>
</svg>
