<?xml version="1.0" encoding="UTF-8" standalone="no"?>
<!-- Created with Inkscape (http://www.inkscape.org/) -->

<svg
   xmlns:dc="http://purl.org/dc/elements/1.1/"
   xmlns:cc="http://creativecommons.org/ns#"
   xmlns:rdf="http://www.w3.org/1999/02/22-rdf-syntax-ns#"
   xmlns:svg="http://www.w3.org/2000/svg"
   xmlns="http://www.w3.org/2000/svg"
   xmlns:sodipodi="http://sodipodi.sourceforge.net/DTD/sodipodi-0.dtd"
   xmlns:inkscape="http://www.inkscape.org/namespaces/inkscape"
   version="1.1"
   width="160"
   height="30"
   id="svg5595"
   inkscape:version="0.48.4 r"
   sodipodi:docname="imslogo_origcolor.svg">
  <sodipodi:namedview
     pagecolor="#ffffff"
     bordercolor="#666666"
     borderopacity="1"
     objecttolerance="10"
     gridtolerance="10"
     guidetolerance="10"
     inkscape:pageopacity="0"
     inkscape:pageshadow="2"
     inkscape:window-width="1920"
     inkscape:window-height="1018"
     id="namedview37"
     showgrid="false"
     inkscape:zoom="4.2917466"
     inkscape:cx="166.7878"
     inkscape:cy="4.4741933"
     inkscape:window-x="-8"
     inkscape:window-y="-8"
     inkscape:window-maximized="1"
     inkscape:current-layer="layer1" />
  <defs
     id="defs5597" />
  <metadata
     id="metadata5600">
    <rdf:RDF>
      <cc:Work
         rdf:about="">
        <dc:format>image/svg+xml</dc:format>
        <dc:type
           rdf:resource="http://purl.org/dc/dcmitype/StillImage" />
        <dc:title></dc:title>
      </cc:Work>
    </rdf:RDF>
  </metadata>
  <g
     transform="translate(-99.54881,-501.89203)"
     id="layer1">
    <g
       id="layer3"
       transform="matrix(0.29080435,0,0,0.29080435,59.310348,376.98251)">
      <g
         id="g3876">
        <path
           d="m 504.26279,434.91739 -14.2684,43.56282 21.2132,12.37437 -23.61232,41.03745 45.58314,-46.84582 -21.08694,-11.74303 16.28871,-38.13326 z"
           id="path3044"
           style="fill:#ec0b7b;fill-opacity:1;stroke:#ff00ff;stroke-width:0;stroke-linecap:butt;stroke-linejoin:miter;stroke-miterlimit:0;stroke-opacity:1;stroke-dasharray:none"
           inkscape:connector-curvature="0" />
        <path
           d="m 510.51311,432.0132 -14.2684,43.56283 21.2132,12.37437 -23.61232,41.03744 45.58314,-46.84582 -21.08694,-11.74302 16.28871,-38.13326 z"
           id="path3044-6"
           style="fill:#009fe2;fill-opacity:1;stroke:#00ffff;stroke-width:0;stroke-linecap:butt;stroke-linejoin:miter;stroke-miterlimit:4;stroke-opacity:1;stroke-dasharray:none"
           inkscape:connector-curvature="0" />
        <path
           d="m 509.46843,434.98911 -13.28125,40.59375 21.21875,12.375 -18.65625,32.4375 34.375,-35.34375 -21.09375,-11.75 16.28125,-38.125 z"
           id="path3044-8"
           style="fill:#181a82;fill-opacity:1;stroke:#0000ff;stroke-width:0;stroke-linecap:butt;stroke-linejoin:miter;stroke-miterlimit:4;stroke-opacity:1;stroke-dasharray:none"
           inkscape:connector-curvature="0" />
      </g>
    </g>
    <g
       style="font-size:72px;font-style:normal;font-variant:normal;font-weight:normal;font-stretch:normal;line-height:125%;letter-spacing:0px;word-spacing:0px;fill:#000000;fill-opacity:1;stroke:none;font-family:Anke;-inkscape-font-specification:Anke"
       id="text2992"
       transform="matrix(0.29080435,0,0,0.29080435,59.310348,376.98251)">
      <path
         d="m 145.19701,461.89722 6.47973,0 0,38.37524 -6.47973,0 z m 3.24096,-7.27295 c -1.1045,4e-5 -2.02881,-0.37203 -2.77295,-1.11621 -0.74414,-0.7441 -1.11621,-1.66768 -1.11621,-2.77076 0,-1.10444 0.37207,-2.02875 1.11621,-2.77294 0.74414,-0.74409 1.66845,-1.11616 2.77295,-1.11622 1.10449,6e-5 2.02844,0.37213 2.77185,1.11622 0.7434,0.74419 1.1151,1.6685 1.11512,2.77294 -2e-5,1.10308 -0.37172,2.02666 -1.11512,2.77076 -0.74341,0.74418 -1.66736,1.11625 -2.77185,1.11621 z"
         id="path3051"
         inkscape:connector-curvature="0" />
    </g>
    <g
       style="font-size:72px;font-style:normal;font-variant:normal;font-weight:normal;font-stretch:normal;line-height:125%;letter-spacing:0px;word-spacing:0px;fill:#000000;fill-opacity:1;stroke:none;font-family:Anke;-inkscape-font-specification:Anke"
       id="text2996"
       transform="matrix(0.29080435,0,0,0.29080435,59.310348,376.98251)">
      <path
         d="m 214.34358,466.5957 c 3.12006,3.11869 4.68012,6.86209 4.68018,11.23023 l 0,22.46484 -6.48194,0 0,-22.46484 c -5e-5,-1.2949 -0.252,-2.51841 -0.75586,-3.67053 -0.50395,-1.15208 -1.18767,-2.14817 -2.05114,-2.98829 -0.86358,-0.84005 -1.87139,-1.51205 -3.02344,-2.01599 -1.15215,-0.50387 -2.37639,-0.75582 -3.67273,-0.75586 -1.29643,4e-5 -2.52067,0.25199 -3.67273,0.75586 -1.15214,0.50394 -2.14786,1.17594 -2.98718,2.01599 -0.83939,0.84012 -1.51139,1.83621 -2.01599,2.98829 -0.50468,1.15212 -0.75699,2.37563 -0.75696,3.67053 l 0,22.46484 -6.47974,0 0,-22.46484 c -2e-5,-1.2949 -0.25198,-2.51841 -0.75586,-3.67053 -0.50393,-1.15208 -1.18764,-2.14817 -2.05114,-2.98829 -0.86355,-0.84005 -1.87136,-1.51205 -3.02344,-2.01599 -1.15212,-0.50387 -2.37636,-0.75582 -3.67273,-0.75586 -1.2964,4e-5 -2.52065,0.25199 -3.67273,0.75586 -1.15211,0.50394 -2.14821,1.17594 -2.98828,2.01599 -0.8401,0.84012 -1.5121,1.83621 -2.01599,2.98829 -0.50392,1.15212 -0.75587,2.37563 -0.75586,3.67053 l 0,22.46484 -6.47974,0 0,-38.37524 6.47974,0 0,3.09594 c 2.78465,-2.06392 5.92894,-3.0959 9.43286,-3.09594 2.15916,4e-5 4.19895,0.39591 6.11938,1.18762 1.92039,0.79178 3.6489,1.95597 5.18555,3.49255 0.52731,0.52738 1.00705,1.07889 1.43921,1.65454 0.4321,-0.57565 0.91183,-1.12716 1.43921,-1.65454 3.12008,-3.12008 6.86422,-4.68013 11.23242,-4.68017 2.1606,4e-5 4.20076,0.39591 6.12048,1.18762 1.91963,0.79178 3.64778,1.95597 5.18445,3.49255 z"
         id="path3048"
         inkscape:connector-curvature="0" />
    </g>
    <g
       style="font-size:72px;font-style:normal;font-variant:normal;font-weight:normal;font-stretch:normal;line-height:125%;letter-spacing:0px;word-spacing:0px;fill:#000000;fill-opacity:1;stroke:none;font-family:Anke;-inkscape-font-specification:Anke"
       id="text3000"
       transform="matrix(0.29080435,0,0,0.29080435,59.310348,376.98251)">
      <path
         d="m 264.19487,462.00482 0,38.37525 -6.48193,0 0,-4.823 c -1.77543,1.53516 -3.74308,2.72278 -5.90296,3.56286 -2.15994,0.84009 -4.44033,1.26014 -6.84118,1.26014 -2.59133,0 -5.03908,-0.48011 -7.34327,-1.44031 -2.30421,-0.9602 -4.36817,-2.35217 -6.19189,-4.17591 -1.82374,-1.82372 -3.2157,-3.89977 -4.1759,-6.22814 -0.96021,-2.32836 -1.44031,-4.7882 -1.44031,-7.37952 0,-2.59275 0.4801,-5.04087 1.44031,-7.34436 0.9602,-2.30344 2.35216,-4.36704 4.1759,-6.1908 1.82372,-1.82516 3.88768,-3.21749 6.19189,-4.177 2.30419,-0.95943 4.75194,-1.43917 7.34327,-1.43921 2.40085,4e-5 4.68124,0.42008 6.84118,1.26013 2.15988,0.84013 4.12753,2.02775 5.90296,3.56287 l 0,-4.823 z m -19.22607,31.89551 c 1.77683,1e-5 3.4332,-0.33618 4.96911,-1.00855 1.53586,-0.67235 2.87986,-1.58421 4.03198,-2.73559 1.15207,-1.15136 2.06394,-2.49535 2.7356,-4.03198 0.6716,-1.53661 1.00741,-3.19261 1.00745,-4.96802 -4e-5,-1.7285 -0.33585,-3.3607 -1.00745,-4.89661 -0.67166,-1.53586 -1.58353,-2.87985 -2.7356,-4.03198 -1.15212,-1.15207 -2.49612,-2.06393 -4.03198,-2.7356 -1.53591,-0.67159 -3.19228,-1.00741 -4.96911,-1.00744 -1.72707,3e-5 -3.35854,0.33585 -4.89441,1.00744 -1.53591,0.67167 -2.8799,1.58353 -4.03199,2.7356 -1.15211,1.15213 -2.06434,2.49612 -2.73669,4.03198 -0.67237,1.53591 -1.00855,3.16811 -1.00855,4.89661 0,1.77541 0.33618,3.43141 1.00855,4.96802 0.67235,1.53663 1.58458,2.88062 2.73669,4.03198 1.15209,1.15138 2.49608,2.06324 4.03199,2.73559 1.53587,0.67237 3.16734,1.00856 4.89441,1.00855 z"
         id="path3045"
         inkscape:connector-curvature="0" />
    </g>
    <g
       style="font-size:72px;font-style:normal;font-variant:normal;font-weight:normal;font-stretch:normal;line-height:125%;letter-spacing:0px;word-spacing:0px;fill:#000000;fill-opacity:1;stroke:none;font-family:Anke;-inkscape-font-specification:Anke"
       id="text3004"
       transform="matrix(0.29080435,0,0,0.29080435,59.310348,376.98251)">
      <path
         d="m 309.55869,461.82324 0,34.84644 c -5e-5,2.59277 -0.47978,5.05297 -1.43921,7.38061 -0.95951,2.32763 -2.35185,4.40405 -4.17701,6.22925 -1.82376,1.82372 -3.89944,3.21532 -6.22705,4.17481 -2.32766,0.95945 -4.78786,1.43919 -7.38061,1.4392 -1.53518,-10e-6 -3.04689,-0.17982 -4.53516,-0.53942 -1.48829,-0.35964 -2.92823,-0.8998 -4.31982,-1.62049 -2.63966,-1.39161 -4.84791,-3.31129 -6.62476,-5.75903 l 5.18555,-3.81665 c 1.24657,1.58495 2.73412,2.85717 4.46265,3.81665 1.82371,0.95946 3.76755,1.4392 5.83154,1.43921 1.77683,-10e-6 3.4332,-0.33583 4.96911,-1.00745 1.53587,-0.67164 2.87986,-1.5835 4.03199,-2.73559 1.15207,-1.15211 2.06393,-2.4961 2.73559,-4.03199 0.6716,-1.53588 1.00741,-3.19226 1.00745,-4.96911 l 0,-1.29419 c -1.77542,1.53516 -3.74307,2.72278 -5.90296,3.56286 -2.15993,0.84009 -4.44033,1.26014 -6.84118,1.26014 -2.59133,0 -5.03908,-0.48011 -7.34326,-1.44031 -2.30421,-0.9602 -4.36818,-2.35217 -6.1919,-4.1759 -1.82373,-1.82373 -3.2157,-3.89978 -4.1759,-6.22815 -0.96021,-2.32836 -1.44031,-4.7882 -1.44031,-7.37952 0,-2.59275 0.4801,-5.04087 1.44031,-7.34436 0.9602,-2.30344 2.35217,-4.36704 4.1759,-6.1908 1.82372,-1.82516 3.88769,-3.21749 6.1919,-4.177 2.30418,-0.95943 4.75193,-1.43917 7.34326,-1.43921 2.40085,4e-5 4.68125,0.42008 6.84118,1.26013 2.15989,0.84013 4.12754,2.02775 5.90296,3.56287 l 0,-4.823 z m -19.22388,31.89551 c 1.77683,10e-6 3.4332,-0.33617 4.96911,-1.00854 1.53587,-0.67236 2.87986,-1.58422 4.03199,-2.7356 1.15207,-1.15136 2.06393,-2.49535 2.73559,-4.03198 0.6716,-1.53661 1.00741,-3.16844 1.00745,-4.89551 l 0,-0.0725 c -4e-5,-1.7285 -0.33585,-3.3607 -1.00745,-4.89661 -0.67166,-1.53586 -1.58352,-2.87985 -2.73559,-4.03198 -1.15213,-1.15207 -2.49612,-2.06393 -4.03199,-2.7356 -1.53591,-0.67159 -3.19228,-1.00741 -4.96911,-1.00744 -1.72707,3e-5 -3.35854,0.33585 -4.89441,1.00744 -1.5359,0.67167 -2.8799,1.58353 -4.03198,2.7356 -1.15211,1.15213 -2.06434,2.49612 -2.7367,4.03198 -0.67237,1.53591 -1.00855,3.16811 -1.00854,4.89661 -1e-5,1.77541 0.33617,3.43141 1.00854,4.96802 0.67236,1.53663 1.58459,2.88062 2.7367,4.03198 1.15208,1.15138 2.49608,2.06324 4.03198,2.7356 1.53587,0.67237 3.16734,1.00855 4.89441,1.00854 z"
         id="path3041"
         inkscape:connector-curvature="0" />
    </g>
    <g
       style="font-size:72px;font-style:normal;font-variant:normal;font-weight:normal;font-stretch:normal;line-height:125%;letter-spacing:0px;word-spacing:0px;fill:#000000;fill-opacity:1;stroke:none;font-family:Anke;-inkscape-font-specification:Anke"
       id="text3008"
       transform="matrix(0.29080435,0,0,0.29080435,59.310348,376.98251)">
      <path
         d="m 319.2959,462.01266 6.47973,0 0,38.37525 -6.47973,0 z m 3.24097,-7.27294 c -1.1045,4e-5 -2.02882,-0.37203 -2.77295,-1.11622 -0.74415,-0.74409 -1.11622,-1.66767 -1.11621,-2.77075 -1e-5,-1.10444 0.37206,-2.02875 1.11621,-2.77295 0.74413,-0.74408 1.66845,-1.11615 2.77295,-1.11621 1.10448,6e-5 2.02843,0.37213 2.77185,1.11621 0.74339,0.7442 1.1151,1.66851 1.11511,2.77295 -1e-5,1.10308 -0.37172,2.02666 -1.11511,2.77075 -0.74342,0.74419 -1.66737,1.11626 -2.77185,1.11622 z"
         id="path3038"
         inkscape:connector-curvature="0" />
    </g>
    <g
       style="font-size:72px;font-style:normal;font-variant:normal;font-weight:normal;font-stretch:normal;line-height:125%;letter-spacing:0px;word-spacing:0px;fill:#000000;fill-opacity:1;stroke:none;font-family:Anke;-inkscape-font-specification:Anke"
       id="text3012"
       transform="matrix(0.29080435,0,0,0.29080435,59.310348,376.98251)">
      <path
         d="m 361.7674,466.6297 c 1.53658,1.53519 2.70077,3.25088 3.49255,5.14709 0.79171,1.89627 1.18759,3.92398 1.18762,6.08313 l 0,22.46485 -6.47974,0 0,-22.46485 c -2e-5,-1.29489 -0.25198,-2.5184 -0.75585,-3.67053 -0.50394,-1.15207 -1.18802,-2.14816 -2.05225,-2.98828 -0.86428,-0.84006 -1.87246,-1.51205 -3.02454,-2.01599 -1.15212,-0.50387 -2.37563,-0.75583 -3.67053,-0.75586 -1.2964,3e-5 -2.52065,0.25199 -3.67273,0.75586 -1.15211,0.50394 -2.1482,1.17593 -2.98828,2.01599 -0.8401,0.84012 -1.5121,1.83621 -2.01599,2.98828 -0.50392,1.15213 -0.75587,2.37564 -0.75586,3.67053 l 0,22.46485 -6.47974,0 0,-38.37525 6.47974,0 0,3.09595 c 2.78466,-2.06393 5.92894,-3.09591 9.43286,-3.09595 2.15916,4e-5 4.19895,0.39592 6.11939,1.18763 1.92038,0.79178 3.64816,1.95596 5.18335,3.49255 z"
         id="path3035"
         inkscape:connector-curvature="0" />
    </g>
    <g
       style="font-size:72px;font-style:normal;font-variant:normal;font-weight:normal;font-stretch:normal;line-height:125%;letter-spacing:0px;word-spacing:0px;fill:#000000;fill-opacity:1;stroke:none;font-family:Anke;-inkscape-font-specification:Anke"
       id="text3016"
       transform="matrix(0.29080435,0,0,0.29080435,59.310348,376.98251)">
      <path
         d="m 411.24844,462.00482 0,38.37525 -6.48193,0 0,-4.823 c -1.77542,1.53516 -3.74307,2.72278 -5.90295,3.56286 -2.15994,0.84009 -4.44034,1.26014 -6.84119,1.26014 -2.59133,0 -5.03908,-0.48011 -7.34326,-1.44031 -2.30421,-0.9602 -4.36818,-2.35217 -6.1919,-4.17591 -1.82373,-1.82372 -3.2157,-3.89977 -4.1759,-6.22814 -0.96021,-2.32836 -1.44031,-4.7882 -1.44031,-7.37952 0,-2.59275 0.4801,-5.04087 1.44031,-7.34436 0.9602,-2.30344 2.35217,-4.36704 4.1759,-6.1908 1.82372,-1.82516 3.88769,-3.21749 6.1919,-4.177 2.30418,-0.95943 4.75193,-1.43917 7.34326,-1.43921 2.40085,4e-5 4.68125,0.42008 6.84119,1.26013 2.15988,0.84013 4.12753,2.02775 5.90295,3.56287 l 0,-4.823 z m -19.22607,31.89551 c 1.77683,1e-5 3.4332,-0.33618 4.96912,-1.00855 1.53586,-0.67235 2.87985,-1.58421 4.03198,-2.73559 1.15207,-1.15136 2.06393,-2.49535 2.73559,-4.03198 0.6716,-1.53661 1.00742,-3.19261 1.00745,-4.96802 -3e-5,-1.7285 -0.33585,-3.3607 -1.00745,-4.89661 -0.67166,-1.53586 -1.58352,-2.87985 -2.73559,-4.03198 -1.15213,-1.15207 -2.49612,-2.06393 -4.03198,-2.7356 -1.53592,-0.67159 -3.19229,-1.00741 -4.96912,-1.00744 -1.72707,3e-5 -3.35854,0.33585 -4.89441,1.00744 -1.5359,0.67167 -2.8799,1.58353 -4.03198,2.7356 -1.15211,1.15213 -2.06434,2.49612 -2.7367,4.03198 -0.67237,1.53591 -1.00855,3.16811 -1.00854,4.89661 -10e-6,1.77541 0.33617,3.43141 1.00854,4.96802 0.67236,1.53663 1.58459,2.88062 2.7367,4.03198 1.15208,1.15138 2.49608,2.06324 4.03198,2.73559 1.53587,0.67237 3.16734,1.00856 4.89441,1.00855 z"
         id="path3032"
         inkscape:connector-curvature="0" />
    </g>
    <g
       style="font-size:72px;font-style:normal;font-variant:normal;font-weight:normal;font-stretch:normal;line-height:125%;letter-spacing:0px;word-spacing:0px;fill:#000000;fill-opacity:1;stroke:none;font-family:Anke;-inkscape-font-specification:Anke"
       id="text3020"
       transform="matrix(0.29080435,0,0,0.29080435,59.310348,376.98251)">
      <path
         d="m 437.88803,462.00482 c 3.02341,-0.14498 5.92746,0.40653 8.71216,1.65454 l -2.59277,5.90406 c -1.82376,-0.81589 -3.74344,-1.17551 -5.75904,-1.07886 -2.11232,0.14358 -4.0569,0.71927 -5.83374,1.72705 -2.01564,1.19973 -3.55152,2.75979 -4.60766,4.68017 -1.10304,1.96878 -1.65455,4.03274 -1.65454,6.1919 l 0,19.29639 -6.48194,0 0,-38.37525 6.48194,0 0,4.823 c 0.91112,-0.86422 1.91893,-1.58419 3.02343,-2.15991 2.73632,-1.6318 5.64036,-2.5195 8.71216,-2.66309 z"
         id="path3029"
         inkscape:connector-curvature="0" />
    </g>
    <g
       style="font-size:72px;font-style:normal;font-variant:normal;font-weight:normal;font-stretch:normal;line-height:125%;letter-spacing:0px;word-spacing:0px;fill:#000000;fill-opacity:1;stroke:none;font-family:Anke;-inkscape-font-specification:Anke"
       id="text3024"
       transform="matrix(0.29080435,0,0,0.29080435,59.310348,376.98251)">
      <path
         d="m 457.65164,516.05981 6.1919,-15.69506 -15.04908,-38.37525 6.98511,0 11.52027,29.52027 11.51806,-29.52027 6.98511,0 -21.16846,54.07031 -6.98291,0 z"
         id="path3026"
         inkscape:connector-curvature="0" />
    </g>
    <g
       style="font-size:72px;font-style:normal;font-variant:normal;font-weight:normal;font-stretch:normal;line-height:125%;letter-spacing:0px;word-spacing:0px;fill:#000000;fill-opacity:1;stroke:none;font-family:Anke;-inkscape-font-specification:Anke"
       id="text3028"
       transform="matrix(0.29080435,0,0,0.29080435,59.310348,376.98251)">
      <path
         d="m 572.77069,466.6297 c 1.53512,1.53519 2.69894,3.25088 3.49146,5.14709 0.79244,1.89627 1.18868,3.92398 1.18872,6.08313 l 0,22.46485 -6.47974,0 0,-22.46485 c -3e-5,-1.29489 -0.25235,-2.5184 -0.75696,-3.67053 -0.50466,-1.15207 -1.18875,-2.14816 -2.05224,-2.98828 -0.86355,-0.84006 -1.87137,-1.51205 -3.02344,-2.01599 -1.15212,-0.50387 -2.37636,-0.75583 -3.67273,-0.75586 -1.29641,3e-5 -2.52028,0.25199 -3.67163,0.75586 -1.15138,0.50394 -2.14711,1.17593 -2.98718,2.01599 -0.8401,0.84012 -1.5121,1.83621 -2.016,2.98828 -0.50391,1.15213 -0.75586,2.37564 -0.75585,3.67053 l 0,22.46485 -6.48194,0 0,-56.30493 6.48194,0 0,21.02563 c 2.78319,-2.06393 5.92674,-3.09591 9.43066,-3.09595 2.16062,4e-5 4.20078,0.39592 6.12048,1.18763 1.91965,0.79178 3.6478,1.95596 5.18445,3.49255 z"
         id="path3023"
         inkscape:connector-curvature="0" />
    </g>
    <g
       style="font-size:72px;font-style:normal;font-variant:normal;font-weight:normal;font-stretch:normal;line-height:125%;letter-spacing:0px;word-spacing:0px;fill:#000000;fill-opacity:1;stroke:none;font-family:Anke;-inkscape-font-specification:Anke"
       id="text3032"
       transform="matrix(0.29080435,0,0,0.29080435,59.310348,376.98251)">
      <path
         d="m 602.99548,500.32477 c -2.59132,0 -5.03908,-0.4801 -7.34326,-1.44031 -2.30421,-0.9602 -4.36817,-2.35217 -6.19189,-4.1759 -1.82374,-1.82373 -3.21571,-3.89977 -4.17591,-6.22815 -0.9602,-2.32836 -1.44031,-4.78819 -1.4403,-7.37952 -10e-6,-2.59275 0.4801,-5.04087 1.4403,-7.34436 0.9602,-2.30344 2.35217,-4.36703 4.17591,-6.1908 1.82372,-1.82516 3.88768,-3.21749 6.19189,-4.177 2.30418,-0.95943 4.75194,-1.43917 7.34326,-1.43921 2.59275,4e-5 5.05296,0.47978 7.38062,1.43921 2.3276,0.95951 4.40402,2.35184 6.22925,4.177 1.82369,1.82377 3.21566,3.88736 4.1759,6.1908 0.96017,2.30349 1.44027,4.75161 1.44031,7.34436 -4e-5,2.59133 -0.48014,5.05116 -1.44031,7.37952 -0.96024,2.32838 -2.35221,4.40442 -4.1759,6.22815 -1.82523,1.82373 -3.90165,3.2157 -6.22925,4.1759 -2.32766,0.96021 -4.78787,1.44031 -7.38062,1.44031 z m 0,-31.89551 c -1.72707,3e-5 -3.35853,0.33585 -4.89441,1.00745 -1.5359,0.67166 -2.87989,1.58352 -4.03198,2.73559 -1.15211,1.15213 -2.06434,2.49612 -2.73669,4.03198 -0.67237,1.53592 -1.00856,3.16812 -1.00855,4.89661 -10e-6,1.77541 0.33618,3.43141 1.00855,4.96802 0.67235,1.53663 1.58458,2.88063 2.73669,4.03198 1.15209,1.15138 2.49608,2.06324 4.03198,2.7356 1.53588,0.67237 3.16734,1.00855 4.89441,1.00854 1.77684,10e-6 3.43321,-0.33617 4.96912,-1.00854 1.53586,-0.67236 2.87985,-1.58422 4.03198,-2.7356 1.15207,-1.15135 2.06393,-2.49535 2.7356,-4.03198 0.6716,-1.53661 1.00741,-3.19261 1.00744,-4.96802 -3e-5,-1.72849 -0.33584,-3.36069 -1.00744,-4.89661 -0.67167,-1.53586 -1.58353,-2.87985 -2.7356,-4.03198 -1.15213,-1.15207 -2.49612,-2.06393 -4.03198,-2.73559 -1.53591,-0.6716 -3.19228,-1.00742 -4.96912,-1.00745 z"
         id="path3020"
         inkscape:connector-curvature="0" />
    </g>
    <g
       style="font-size:72px;font-style:normal;font-variant:normal;font-weight:normal;font-stretch:normal;line-height:125%;letter-spacing:0px;word-spacing:0px;fill:#000000;fill-opacity:1;stroke:none;font-family:Anke;-inkscape-font-specification:Anke"
       id="text3036"
       transform="matrix(0.29080435,0,0,0.29080435,59.310348,376.98251)">
      <path
         d="m 646.99695,461.99454 c 3.02341,-0.14498 5.92746,0.40653 8.71216,1.65454 l -2.59278,5.90405 c -1.82375,-0.81589 -3.74343,-1.1755 -5.75903,-1.07886 -2.11232,0.14359 -4.0569,0.71927 -5.83374,1.72705 -2.01564,1.19974 -3.55153,2.7598 -4.60767,4.68018 -1.10303,1.96877 -1.65455,4.03274 -1.65454,6.19189 l 0,19.29639 -6.48193,0 0,-38.37524 6.48193,0 0,4.823 c 0.91112,-0.86423 1.91894,-1.5842 3.02344,-2.15992 2.73631,-1.6318 5.64036,-2.51949 8.71216,-2.66308 z"
         id="path3017"
         inkscape:connector-curvature="0" />
    </g>
    <g
       style="font-size:72px;font-style:normal;font-variant:normal;font-weight:normal;font-stretch:normal;line-height:125%;letter-spacing:0px;word-spacing:0px;fill:#000000;fill-opacity:1;stroke:none;font-family:Anke;-inkscape-font-specification:Anke"
       id="text3040"
       transform="matrix(0.29080435,0,0,0.29080435,59.310348,376.98251)">
      <path
         d="m 679.93524,462.01584 0,6.47973 -8.71216,0 0,31.89551 -6.47973,0 0,-31.89551 -4.75269,0 0,-6.47973 4.75269,0 0,-17.92969 6.47973,0 0,17.92969 8.71216,0 z"
         id="path3014"
         inkscape:connector-curvature="0" />
    </g>
  </g>
</svg>
